<svg width="24" height="24" viewBox="0 0 24 24" fill="none" xmlns="http://www.w3.org/2000/svg">
<path fill-rule="evenodd" clip-rule="evenodd" d="M16.5 11.5C16.5 14.2614 14.2614 16.5 11.5 16.5C8.73858 16.5 6.5 14.2614 6.5 11.5C6.5 8.73858 8.73858 6.5 11.5 6.5C14.2614 6.5 16.5 8.73858 16.5 11.5ZM15.8451 17.6138C14.6192 18.4867 13.1195 19 11.5 19C7.35786 19 4 15.6421 4 11.5C4 7.35786 7.35786 4 11.5 4C15.6421 4 19 7.35786 19 11.5C19 13.12 18.4864 14.6201 17.613 15.8462L19.6339 17.8671C20.122 18.3552 20.1221 19.1467 19.6339 19.6348C19.1458 20.123 18.3543 20.123 17.8661 19.6349L15.8451 17.6138Z" fill="black"/>
</svg>
