<svg width="24" height="24" viewBox="0 0 24 24" fill="none" xmlns="http://www.w3.org/2000/svg">
<path fill-rule="evenodd" clip-rule="evenodd" d="M13.25 5.25C13.25 4.55964 12.6904 4 12 4C11.3096 4 10.75 4.55964 10.75 5.25V10.75L5.25 10.75C4.55964 10.75 4 11.3096 4 12C4 12.6904 4.55964 13.25 5.25 13.25H10.75V18.75C10.75 19.4404 11.3096 20 12 20C12.6904 20 13.25 19.4404 13.25 18.75V13.25H18.75C19.4404 13.25 20 12.6904 20 12C20 11.3096 19.4404 10.75 18.75 10.75L13.25 10.75V5.25Z" fill="black"/>
</svg>
