<svg width="24" height="24" viewBox="0 0 24 24" fill="none" xmlns="http://www.w3.org/2000/svg">
<path d="M12 15.15C13.3255 15.15 14.4 14.0755 14.4 12.75C14.4 11.4245 13.3255 10.35 12 10.35C10.6745 10.35 9.6 11.4245 9.6 12.75C9.6 14.0755 10.6745 15.15 12 15.15Z" fill="black"/>
<path d="M9.75 5.25L8.3775 6.75H6C5.175 6.75 4.5 7.425 4.5 8.25V17.25C4.5 18.075 5.175 18.75 6 18.75H18C18.825 18.75 19.5 18.075 19.5 17.25V8.25C19.5 7.425 18.825 6.75 18 6.75H15.6225L14.25 5.25H9.75ZM12 16.5C9.93 16.5 8.25 14.82 8.25 12.75C8.25 10.68 9.93 9 12 9C14.07 9 15.75 10.68 15.75 12.75C15.75 14.82 14.07 16.5 12 16.5Z" fill="black"/>
</svg>
