<svg width="24" height="24" viewBox="0 0 24 24" fill="none" xmlns="http://www.w3.org/2000/svg">
<path fill-rule="evenodd" clip-rule="evenodd" d="M6.5 7.5C6.22386 7.5 6 7.72386 6 8V17.6594L8.6241 14.6675C8.71903 14.5593 8.85602 14.4972 9 14.4972H17.5C17.7761 14.4972 18 14.2734 18 13.9972V8C18 7.72386 17.7761 7.5 17.5 7.5H6.5ZM5 8C5 7.17157 5.67157 6.5 6.5 6.5H17.5C18.3284 6.5 19 7.17157 19 8V13.9972C19 14.8256 18.3284 15.4972 17.5 15.4972H9.22653L5.8759 19.3175C5.73862 19.474 5.51871 19.5291 5.32386 19.4557C5.12901 19.3824 5 19.196 5 18.9878V8Z" fill="black"/>
</svg>
