<svg width="24" height="24" viewBox="0 0 24 24" fill="none" xmlns="http://www.w3.org/2000/svg">
<path fill-rule="evenodd" clip-rule="evenodd" d="M15.8573 4.79975C15.8573 4.3737 15.5119 4.02832 15.0858 4.02832C14.6598 4.02832 14.3144 4.3737 14.3144 4.79975V6.08546H9.68583V4.79975C9.68583 4.3737 9.34045 4.02832 8.9144 4.02832C8.48835 4.02832 8.14297 4.3737 8.14297 4.79975V6.08546H6.80011C5.61283 6.08546 4.54297 6.98788 4.54297 8.22832V17.8283C4.54297 19.0688 5.61283 19.9712 6.80011 19.9712H17.2001C18.3874 19.9712 19.4573 19.0688 19.4573 17.8283V8.22832C19.4573 6.98788 18.3874 6.08546 17.2001 6.08546H15.8573V4.79975ZM17.9144 10.6568V8.22832C17.9144 7.95393 17.6539 7.62832 17.2001 7.62832H15.8573V7.88546C15.8573 8.31151 15.5119 8.65689 15.0858 8.65689C14.6598 8.65689 14.3144 8.31151 14.3144 7.88546V7.62832H9.68583V7.88546C9.68583 8.31151 9.34045 8.65689 8.9144 8.65689C8.48835 8.65689 8.14297 8.31151 8.14297 7.88546V7.62832H6.80011C6.34632 7.62832 6.08583 7.95393 6.08583 8.22832V10.6568H17.9144ZM6.08583 12.1996H17.9144V17.8283C17.9144 18.1027 17.6539 18.4283 17.2001 18.4283H6.80011C6.34632 18.4283 6.08583 18.1027 6.08583 17.8283V12.1996Z" fill="black"/>
</svg>
