<svg width="24" height="24" viewBox="0 0 24 24" fill="none" xmlns="http://www.w3.org/2000/svg">
<path d="M9.42855 11.7426C9.0025 11.7426 8.65712 12.088 8.65712 12.514C8.65712 12.9401 9.0025 13.2855 9.42855 13.2855H14.5714C14.9975 13.2855 15.3428 12.9401 15.3428 12.514C15.3428 12.088 14.9975 11.7426 14.5714 11.7426H9.42855Z" fill="black"/>
<path d="M8.65712 15.5997C8.65712 15.1737 9.0025 14.8283 9.42855 14.8283H14.5714C14.9975 14.8283 15.3428 15.1737 15.3428 15.5997C15.3428 16.0258 14.9975 16.3712 14.5714 16.3712H9.42855C9.0025 16.3712 8.65712 16.0258 8.65712 15.5997Z" fill="black"/>
<path fill-rule="evenodd" clip-rule="evenodd" d="M7.88578 4.37134C7.31746 4.37134 6.77241 4.5971 6.37055 4.99897C5.96868 5.40083 5.74292 5.94587 5.74292 6.51419V17.4856C5.74292 18.0539 5.96868 18.599 6.37055 19.0009C6.77241 19.4027 7.31746 19.6285 7.88578 19.6285H16.1143C16.6827 19.6285 17.2277 19.4027 17.6296 19.0009C18.0314 18.599 18.2572 18.0539 18.2572 17.4856V9.25705C18.2572 9.20033 18.251 9.14426 18.2388 9.08974C18.2232 9.01903 18.1979 8.95196 18.1643 8.89001C18.1291 8.82499 18.0845 8.76479 18.0313 8.71157L13.917 4.59728C13.8779 4.55821 13.8351 4.52376 13.7893 4.49429C13.6736 4.41957 13.5367 4.37496 13.3896 4.37155C13.3835 4.37141 13.3775 4.37134 13.3715 4.37134H7.88578ZM12.5999 5.91419H7.88578C7.72665 5.91419 7.57403 5.97741 7.46151 6.08993C7.34899 6.20245 7.28578 6.35506 7.28578 6.51419V17.4856C7.28578 17.6448 7.34899 17.7974 7.46151 17.9099C7.57404 18.0224 7.72665 18.0856 7.88578 18.0856H16.1143C16.2735 18.0856 16.4261 18.0224 16.5386 17.9099C16.6511 17.7974 16.7143 17.6448 16.7143 17.4856V10.0285H13.3713C12.9453 10.0285 12.5999 9.6831 12.5999 9.25705V5.91419ZM15.6234 8.48562L14.1428 7.00499V8.48562H15.6234Z" fill="black"/>
</svg>
