<svg width="48" height="48" viewBox="0 0 48 48" fill="none" xmlns="http://www.w3.org/2000/svg">
<path fill-rule="evenodd" clip-rule="evenodd" d="M41.5 24.8211C41.4373 22.8697 40.6029 21.0229 39.1799 19.6861C37.7568 18.3493 35.8615 17.6318 33.91 17.6911C32.4444 17.671 31.0041 18.0746 29.7623 18.8534C28.5205 19.6321 27.5301 20.753 26.91 22.0811V15.2211C26.9048 15.0714 26.8702 14.9241 26.8081 14.7878C26.746 14.6515 26.6576 14.5287 26.548 14.4265C26.4384 14.3244 26.3098 14.2448 26.1694 14.1924C26.029 14.14 25.8797 14.1158 25.73 14.1211H22.93C22.7786 14.1131 22.6272 14.1353 22.4845 14.1864C22.3418 14.2376 22.2108 14.3167 22.099 14.4192C21.9873 14.5216 21.8971 14.6453 21.8337 14.783C21.7704 14.9207 21.7351 15.0696 21.73 15.2211V28.3811H23.48V15.7711H25.12V28.3811H26.87V27.5611C27.4901 28.8893 28.4805 30.0101 29.7223 30.7889C30.9641 31.5677 32.4044 31.9712 33.87 31.9511C35.5322 31.9572 37.1533 31.4354 38.5 30.4611L42.5 34.8811L43.83 33.8211L39.83 29.3111C40.9105 28.0652 41.5037 26.4703 41.5 24.8211ZM33.91 30.3011C32.4104 30.3469 30.9539 29.7954 29.8607 28.7679C28.7675 27.7403 28.127 26.3207 28.08 24.8211C28.1858 23.3459 28.8466 21.9655 29.9292 20.9577C31.0118 19.95 32.436 19.3898 33.915 19.3898C35.394 19.3898 36.8182 19.95 37.9008 20.9577C38.9834 21.9655 39.6442 23.3459 39.75 24.8211C39.7267 25.5645 39.5572 26.296 39.251 26.9739C38.9449 27.6517 38.5081 28.2626 37.9658 28.7715C37.4234 29.2804 36.786 29.6775 36.0901 29.9399C35.3942 30.2024 34.6534 30.3251 33.91 30.3011V30.3011ZM11.64 28.3811V22.9011H10V28.3811H8.25V22.3811C8.25389 22.2327 8.28698 22.0865 8.34739 21.9509C8.4078 21.8153 8.49434 21.6929 8.60207 21.5908C8.70979 21.4886 8.8366 21.4087 8.97523 21.3556C9.11385 21.3024 9.26159 21.2771 9.41 21.2811H12.23C12.3784 21.2771 12.5261 21.3024 12.6648 21.3556C12.8034 21.4087 12.9302 21.4886 13.0379 21.5908C13.1457 21.6929 13.2322 21.8153 13.2926 21.9509C13.353 22.0865 13.3861 22.2327 13.39 22.3811V28.3811H11.64ZM42.64 7.00112H5.33C5.03318 6.99179 4.73742 7.04104 4.45965 7.14607C4.18187 7.2511 3.92752 7.40985 3.71113 7.61324C3.49474 7.81663 3.32055 8.06067 3.19853 8.33141C3.07651 8.60215 3.00905 8.89429 3 9.19112V32.7711C3.00905 33.068 3.07651 33.3601 3.19853 33.6308C3.32055 33.9016 3.49474 34.1456 3.71113 34.349C3.92752 34.5524 4.18187 34.7111 4.45965 34.8162C4.73742 34.9212 5.03318 34.9705 5.33 34.9611H20.5V39.3511H15.25V41.0011H32.73V39.3511H28.08V34.9611H35.08V33.3211H5.33C5.25432 33.3252 5.17859 33.3141 5.10725 33.2885C5.0359 33.2629 4.97038 33.2233 4.91451 33.1721C4.85864 33.1209 4.81355 33.0591 4.78187 32.9902C4.75018 32.9214 4.73255 32.8469 4.73 32.7711V9.19112C4.73522 9.0417 4.79895 8.90031 4.90744 8.79742C5.01593 8.69454 5.16051 8.63841 5.31 8.64112H42.66C42.7349 8.63845 42.8095 8.65056 42.8797 8.67676C42.9499 8.70296 43.0142 8.74274 43.069 8.79382C43.1238 8.84491 43.168 8.90629 43.1991 8.97446C43.2301 9.04263 43.2474 9.11625 43.25 9.19112V24.5411H45V9.19112C44.9791 8.59075 44.7211 8.02312 44.2825 7.61263C43.8439 7.20213 43.2604 6.98224 42.66 7.00112H42.64ZM22.23 35.0011H26.33V39.3911H22.25L22.23 35.0011ZM18.38 28.4211V19.4211H16.73V28.4211H15.01V18.7911C15.0139 18.6427 15.047 18.4965 15.1074 18.3609C15.1678 18.2253 15.2543 18.1029 15.3621 18.0008C15.4698 17.8986 15.5966 17.8187 15.7352 17.7656C15.8739 17.7124 16.0216 17.6871 16.17 17.6911H18.99C19.1384 17.6871 19.2861 17.7124 19.4248 17.7656C19.5634 17.8187 19.6902 17.8986 19.7979 18.0008C19.9057 18.1029 19.9922 18.2253 20.0526 18.3609C20.113 18.4965 20.1461 18.6427 20.15 18.7911V28.3811L18.38 28.4211Z" fill="black"/>
</svg>
