<svg width="24" height="24" viewBox="0 0 24 24" fill="none" xmlns="http://www.w3.org/2000/svg">
<path d="M5.3 15.3H7.6L12.5 18.6C13.4 19.2 14.6 18.6 14.6 17.5V6.5C14.6 5.4 13.4 4.8 12.5 5.4L7.7 8.7H5.3C4.6 8.7 4 9.3 4 10V14C4 14.7 4.6 15.3 5.3 15.3ZM17.9 15.1C17.5 15.3 17.1 15.4 16.6 15.4V8.7C17 8.7 17.5 8.8 17.9 9C18.3 9.2 18.7 9.4 19 9.7C19.3 10 19.6 10.4 19.7 10.8C19.9 11.2 20 11.6 20 12.1C20 12.5 19.9 13 19.7 13.4C19.5 13.8 19.3 14.2 19 14.5C18.7 14.7 18.3 14.9 17.9 15.1Z" fill="black"/>
</svg>
