<svg width="24" height="24" viewBox="0 0 24 24" fill="none" xmlns="http://www.w3.org/2000/svg">
<path d="M5.33333 15.3331H7.66667L12.5937 18.6178C13.4798 19.2086 14.6667 18.5734 14.6667 17.5084V6.49115C14.6667 5.42623 13.4798 4.79104 12.5937 5.38175L7.66667 8.66646H5.33333C4.59695 8.66646 4 9.26342 4 9.9998V13.9998C4 14.7362 4.59695 15.3331 5.33333 15.3331Z" fill="black"/>
<path d="M17.9423 15.0794C17.5379 15.2469 17.1044 15.3331 16.6667 15.3331V8.66646C17.1044 8.66646 17.5379 8.75268 17.9423 8.9202C18.3467 9.08772 18.7142 9.33325 19.0237 9.64278C19.3332 9.9523 19.5787 10.3198 19.7463 10.7242C19.9138 11.1286 20 11.5621 20 11.9998C20 12.4375 19.9138 12.871 19.7463 13.2754C19.5787 13.6798 19.3332 14.0473 19.0237 14.3568C18.7142 14.6663 18.3467 14.9119 17.9423 15.0794Z" fill="black"/>
</svg>
