<svg width="24" height="24" viewBox="0 0 24 24" fill="none" xmlns="http://www.w3.org/2000/svg">
<path fill-rule="evenodd" clip-rule="evenodd" d="M4 12.0005C4 11.4482 4.44772 11.0005 5 11.0005H19C19.5523 11.0005 20 11.4482 20 12.0005C20 12.5528 19.5523 13.0005 19 13.0005H5C4.44772 13.0005 4 12.5528 4 12.0005Z" fill="black"/>
<path fill-rule="evenodd" clip-rule="evenodd" d="M12.7071 4.29338C13.0976 4.68391 13.0976 5.31707 12.7071 5.7076L6.41421 12.0005L12.7071 18.2934C13.0976 18.6839 13.0976 19.3171 12.7071 19.7076C12.3166 20.0981 11.6834 20.0981 11.2929 19.7076L4.29289 12.7076C3.90237 12.3171 3.90237 11.6839 4.29289 11.2934L11.2929 4.29338C11.6834 3.90286 12.3166 3.90286 12.7071 4.29338Z" fill="black"/>
</svg>
