<svg width="24" height="24" viewBox="0 0 24 24" fill="none" xmlns="http://www.w3.org/2000/svg">
<path fill-rule="evenodd" clip-rule="evenodd" d="M12 4C7.58172 4 4 7.58172 4 12C4 16.4183 7.58172 20 12 20C16.4183 20 20 16.4183 20 12C20 7.58172 16.4183 4 12 4ZM12 16C12.5523 16 13 15.5523 13 15C13 14.4477 12.5523 14 12 14C11.4477 14 11 14.4477 11 15C11 15.5523 11.4477 16 12 16ZM12 13C12.5523 13 13 12.5523 13 12V9C13 8.44772 12.5523 8 12 8C11.4477 8 11 8.44772 11 9L11 12C11 12.5523 11.4477 13 12 13Z" fill="black"/>
</svg>
