<svg width="24" height="24" viewBox="0 0 24 24" fill="none" xmlns="http://www.w3.org/2000/svg">
<path d="M19.0002 6.76773C19.4883 6.27958 19.4883 5.48812 19.0002 4.99997C18.512 4.51181 17.7206 4.51181 17.2324 4.99997L12.0001 10.2322L6.76743 5C6.27927 4.51184 5.48782 4.51184 4.99966 5C4.51151 5.48816 4.51151 6.27961 4.99966 6.76777L10.2323 12L5 17.2324C4.51184 17.7206 4.51184 18.512 5 19.0002C5.48816 19.4883 6.27961 19.4883 6.76777 19.0002L12.0001 13.7677L17.2324 19C17.7205 19.4882 18.512 19.4882 19.0001 19C19.4883 18.5118 19.4883 17.7204 19.0001 17.2322L13.7679 12L19.0002 6.76773Z" fill="black"/>
</svg>
