<svg width="24" height="24" viewBox="0 0 24 24" fill="none" xmlns="http://www.w3.org/2000/svg">
<path d="M11 7L11 12.5858L8.70711 10.2929C8.31658 9.90237 7.68342 9.90237 7.29289 10.2929C6.90237 10.6834 6.90237 11.3166 7.29289 11.7071L12 16.4142L16.7071 11.7071C17.0976 11.3166 17.0976 10.6834 16.7071 10.2929C16.3166 9.90237 15.6834 9.90237 15.2929 10.2929L13 12.5858V7C13 6.44771 12.5523 6 12 6C11.4477 6 11 6.44771 11 7Z" fill="black"/>
<path d="M6 17.4141C5.44772 17.4141 5 17.8619 5 18.4141C5 18.9664 5.44772 19.4141 6 19.4141H18C18.5523 19.4141 19 18.9664 19 18.4141C19 17.8619 18.5523 17.4141 18 17.4141H6Z" fill="black"/>
</svg>
