<svg width="24" height="24" viewBox="0 0 24 24" fill="none" xmlns="http://www.w3.org/2000/svg">
<path fill-rule="evenodd" clip-rule="evenodd" d="M14.3088 5.63228C14.7134 5.22744 15.2621 5 15.8343 5C16.1176 5 16.3982 5.05584 16.6599 5.16432C16.9217 5.27281 17.1595 5.43182 17.3599 5.63228C17.5602 5.83273 17.7191 6.07071 17.8276 6.33262C17.936 6.59453 17.9918 6.87524 17.9918 7.15873C17.9918 7.44222 17.936 7.72293 17.8276 7.98484C17.7191 8.24675 17.5602 8.48473 17.3599 8.68519L7.96757 18.083C7.89535 18.1553 7.80485 18.2065 7.70577 18.2313L4.70023 18.9832C4.50819 19.0312 4.30504 18.9749 4.16507 18.8348C4.0251 18.6948 3.96883 18.4915 4.01684 18.2994L4.76822 15.2921C4.79299 15.1929 4.84423 15.1024 4.91645 15.0301L14.3088 5.63228ZM13.0041 17C12.4521 17 12.0047 17.4477 12.0047 18C12.0047 18.5523 12.4521 19 13.0041 19H19.0006C19.5525 19 20 18.5523 20 18C20 17.4477 19.5525 17 19.0006 17H13.0041Z" fill="black"/>
</svg>
