<svg width="24" height="24" viewBox="0 0 24 24" fill="none" xmlns="http://www.w3.org/2000/svg">
<path fill-rule="evenodd" clip-rule="evenodd" d="M12 4C7.58172 4 4 7.58172 4 12C4 16.4183 7.58172 20 12 20C16.4183 20 20 16.4183 20 12C20 7.58172 16.4183 4 12 4ZM16.0403 16.0403C15.6497 16.4308 15.0166 16.4308 14.626 16.0403L12.0001 13.4143L9.3741 16.0404C8.98357 16.4309 8.35041 16.4309 7.95989 16.0404C7.56936 15.6498 7.56936 15.0167 7.95989 14.6261L10.5859 12.0001L7.95989 9.3741C7.56936 8.98357 7.56936 8.35041 7.95989 7.95989C8.35041 7.56936 8.98357 7.56936 9.3741 7.95989L12.0001 10.5859L14.626 7.95998C15.0166 7.56946 15.6497 7.56946 16.0403 7.95998C16.4308 8.35051 16.4308 8.98367 16.0403 9.3742L13.4143 12.0001L16.0403 14.626C16.4308 15.0166 16.4308 15.6497 16.0403 16.0403Z" fill="black"/>
</svg>
