<svg width="24" height="24" viewBox="0 0 24 24" fill="none" xmlns="http://www.w3.org/2000/svg">
<path d="M14.4 12.65C14.4 13.95 13.3 15.05 12 15.05C10.7 15.05 9.6 13.95 9.6 12.65C9.6 11.35 10.7 10.25 12 10.25C13.3 10.25 14.4 11.35 14.4 12.65ZM8.4 6.75L9.8 5.25H14.3L15.7 6.75H18C18.8 6.75 19.5 7.45 19.5 8.25V17.25C19.5 18.05 18.8 18.75 18 18.75H6C5.2 18.75 4.5 18.05 4.5 17.25V8.25C4.5 7.45 5.2 6.75 6 6.75H8.4ZM8.2 12.75C8.2 14.85 9.9 16.55 12 16.55C14.1 16.55 15.8 14.85 15.8 12.75C15.8 10.65 14.1 8.95 12 8.95C9.9 8.95 8.2 10.65 8.2 12.75Z" fill="black"/>
</svg>
