<svg width="24" height="24" viewBox="0 0 24 24" fill="none" xmlns="http://www.w3.org/2000/svg">
<path fill-rule="evenodd" clip-rule="evenodd" d="M12 23C18.0751 23 23 18.0751 23 12C23 5.92487 18.0751 1 12 1C5.92487 1 1 5.92487 1 12C1 18.0751 5.92487 23 12 23ZM12 24C18.6274 24 24 18.6274 24 12C24 5.37258 18.6274 0 12 0C5.37258 0 0 5.37258 0 12C0 18.6274 5.37258 24 12 24Z" fill="black"/>
<path d="M10.1562 14.2109V13.6328C10.1562 13.1328 10.263 12.6979 10.4766 12.3281C10.6901 11.9583 11.0807 11.5651 11.6484 11.1484C12.1953 10.7578 12.5547 10.4401 12.7266 10.1953C12.9036 9.95052 12.9922 9.67708 12.9922 9.375C12.9922 9.03646 12.8672 8.77865 12.6172 8.60156C12.3672 8.42448 12.0182 8.33594 11.5703 8.33594C10.7891 8.33594 9.89844 8.59115 8.89844 9.10156L8.04688 7.39062C9.20833 6.73958 10.4401 6.41406 11.7422 6.41406C12.8151 6.41406 13.6667 6.67188 14.2969 7.1875C14.9323 7.70312 15.25 8.39062 15.25 9.25C15.25 9.82292 15.1198 10.3177 14.8594 10.7344C14.599 11.151 14.1042 11.6198 13.375 12.1406C12.875 12.5104 12.5573 12.7917 12.4219 12.9844C12.2917 13.1771 12.2266 13.4297 12.2266 13.7422V14.2109H10.1562ZM9.90625 16.8828C9.90625 16.4453 10.0234 16.1146 10.2578 15.8906C10.4922 15.6667 10.8333 15.5547 11.2812 15.5547C11.7135 15.5547 12.0469 15.6693 12.2812 15.8984C12.5208 16.1276 12.6406 16.4557 12.6406 16.8828C12.6406 17.2943 12.5208 17.6198 12.2812 17.8594C12.0417 18.0938 11.7083 18.2109 11.2812 18.2109C10.8438 18.2109 10.5052 18.0964 10.2656 17.8672C10.026 17.6328 9.90625 17.3047 9.90625 16.8828Z" fill="black"/>
</svg>
