<?xml version="1.0" encoding="utf-8"?>
<!-- Generator: Adobe Illustrator 24.0.2, SVG Export Plug-In . SVG Version: 6.00 Build 0)  -->
<svg version="1.1" id="Layer_1" xmlns="http://www.w3.org/2000/svg" xmlns:xlink="http://www.w3.org/1999/xlink" x="0px" y="0px"
	 viewBox="0 0 24 24" style="enable-background:new 0 0 24 24;" xml:space="preserve">
<style type="text/css">
	.st0{fill-rule:evenodd;clip-rule:evenodd;}
</style>
<path class="st0" d="M17.7,18.4v-7.8c0-0.2-0.1-0.3-0.2-0.4l-5.1-4.4c-0.2-0.2-0.5-0.2-0.7,0l-5.1,4.4c-0.1,0.1-0.2,0.2-0.2,0.4v7.8
	h2.1v-3.1c0-2,1.6-3.6,3.6-3.6c2,0,3.6,1.6,3.6,3.6v3.1H17.7z M5.5,9c-0.5,0.4-0.7,1-0.7,1.6v8.3c0,0.6,0.5,1,1,1h3.9
	c0.1,0,0.2-0.1,0.2-0.2v-4.4c0-1.1,0.9-2.1,2.1-2.1c1.1,0,2.1,0.9,2.1,2.1v4.4c0,0.1,0.1,0.2,0.2,0.2h3.9c0.6,0,1-0.5,1-1v-8.3
	c0-0.6-0.3-1.2-0.7-1.6l-5.1-4.4c-0.8-0.7-1.9-0.7-2.7,0L5.5,9z"/>
</svg>
