<svg width="24" height="24" viewBox="0 0 24 24" fill="none" xmlns="http://www.w3.org/2000/svg">
<path fill-rule="evenodd" clip-rule="evenodd" d="M7.65982 13.8506L12.6529 17.2344V6.7661L7.65948 10.1501H5.05726V13.8506H7.65982ZM7.18594 8.60723H4.54298C3.97491 8.60723 3.5144 9.06773 3.5144 9.6358V14.3649C3.5144 14.933 3.97491 15.3935 4.54298 15.3935H7.18627L12.5901 19.0556C13.2731 19.5185 14.1957 19.0292 14.1957 18.2042V5.79631C14.1957 4.97125 13.2731 4.48199 12.5901 4.94485L7.18594 8.60723Z" fill="black"/>
<path fill-rule="evenodd" clip-rule="evenodd" d="M17.1628 15.9168C16.3107 15.9168 15.6199 15.226 15.6199 14.3739V9.62666C15.6199 8.77456 16.3107 8.0838 17.1628 8.0838C17.672 8.0838 18.1587 8.21859 18.5899 8.45677C19.0181 8.69324 19.375 9.02163 19.6558 9.39616C19.9366 9.77048 20.144 10.1936 20.2809 10.6342C20.4179 11.0754 20.4858 11.5386 20.4858 12.0003C20.4858 12.4619 20.4179 12.9252 20.2809 13.3664C20.144 13.807 19.9366 14.2301 19.6558 14.6044C19.375 14.9789 19.0181 15.3073 18.5899 15.5438C18.1587 15.782 17.672 15.9168 17.1628 15.9168ZM17.1628 14.3739C17.3965 14.3739 17.628 14.3125 17.844 14.1932C18.06 14.0739 18.2563 13.8991 18.4216 13.6787C18.5323 13.531 18.6278 13.3647 18.7056 13.1845C18.7439 13.0957 18.778 13.0036 18.8075 12.9086C18.8969 12.6206 18.943 12.312 18.943 12.0003C18.943 11.6886 18.8969 11.3799 18.8075 11.0919C18.778 10.997 18.7439 10.9048 18.7056 10.8161C18.6278 10.6358 18.5323 10.4696 18.4216 10.3219C18.2563 10.1015 18.06 9.92662 17.844 9.80734C17.628 9.68805 17.3965 9.62666 17.1628 9.62666V14.3739Z" fill="black"/>
</svg>
