<svg width="24" height="24" viewBox="0 0 24 24" fill="none" xmlns="http://www.w3.org/2000/svg">
<path d="M18.2 9.10002C18.2 9.00002 18.2 9.00002 18.1 8.90002C18.1 8.80002 18 8.80002 18 8.70002L13.9 4.60002L13.8 4.50002C13.7 4.40002 13.5 4.40002 13.4 4.40002H7.89995C7.29995 4.40002 6.79995 4.60002 6.39995 5.00002C5.99995 5.40002 5.69995 5.90002 5.69995 6.50002V17.5C5.69995 18.1 5.89995 18.6 6.29995 19C6.69995 19.4 7.19995 19.6 7.79995 19.6H16C16.6 19.6 17.1 19.4 17.5 19C17.9 18.6 18.1 18.1 18.1 17.5V9.30002C18.3 9.20002 18.3 9.10002 18.2 9.10002ZM14.1 7.00002L15.6 8.50002H14.1V7.00002ZM16.7 17.5C16.7 17.7 16.6 17.8 16.5 17.9C16.4 18 16.2 18.1 16.1 18.1H7.89995C7.69995 18.1 7.59995 18 7.49995 17.9C7.39995 17.8 7.29995 17.6 7.29995 17.5V6.50002C7.29995 6.30002 7.39995 6.20002 7.49995 6.10002C7.59995 6.00002 7.69995 5.90002 7.89995 5.90002H12.6V9.20002C12.6 9.60002 12.9 10 13.4 10H16.7V17.5ZM8.69995 12.5C8.69995 12.1 8.99995 11.7 9.49995 11.7H14.6C15 11.7 15.4 12 15.4 12.5C15.4 12.9 15.1 13.3 14.6 13.3H9.39995C8.99995 13.3 8.69995 12.9 8.69995 12.5ZM15.3 15.6C15.3 16 15 16.4 14.5 16.4H9.39995C8.99995 16.4 8.59995 16.1 8.59995 15.6C8.59995 15.2 8.89995 14.8 9.39995 14.8H14.5C15 14.8 15.3 15.2 15.3 15.6Z" fill="black"/>
</svg>
