<svg width="20" height="20" viewBox="0 0 20 20" fill="none" xmlns="http://www.w3.org/2000/svg">
<path d="M13.75 7.70825H13.125V6.45825C13.125 4.73325 11.725 3.33325 10 3.33325C8.275 3.33325 6.875 4.73325 6.875 6.45825V7.70825H6.25C5.5625 7.70825 5 8.27075 5 8.95825V15.2083C5 15.8958 5.5625 16.4583 6.25 16.4583H13.75C14.4375 16.4583 15 15.8958 15 15.2083V8.95825C15 8.27075 14.4375 7.70825 13.75 7.70825ZM10 13.3333C9.3125 13.3333 8.75 12.7708 8.75 12.0833C8.75 11.3958 9.3125 10.8333 10 10.8333C10.6875 10.8333 11.25 11.3958 11.25 12.0833C11.25 12.7708 10.6875 13.3333 10 13.3333ZM11.9375 7.70825H8.0625V6.45825C8.0625 5.3895 8.93125 4.52075 10 4.52075C11.0687 4.52075 11.9375 5.3895 11.9375 6.45825V7.70825Z" fill="#858796"/>
</svg>
