<svg width="235" height="40" viewBox="0 0 235 40" xmlns="http://www.w3.org/2000/svg">
	<path fill="#e6223d" d="M14.5,12.6c0.9,0,1.8,0.1,2.6,0.3v5.2c-0.9-0.1-1.8-0.1-2.6-0.1c-3,0-5.6,2-5.6,4.4s2.6,4.4,5.6,4.4c0.9,0,1.8,0,2.6-0.1v5.2c-0.9,0.2-1.8,0.3-2.6,0.3c-1.7,0-3.5-0.4-5-1.2c-1.6-0.8-2.9-1.9-4-3.3v4.2H0V4.9h5.4V17c1.1-1.4,2.4-2.5,4-3.3C11,13,12.7,12.6,14.5,12.6z M29.6,9.1c0.9,0,1.8-0.3,2.6-0.8c0.8-0.5,1.4-1.2,1.7-2s0.4-1.8,0.3-2.6C34,2.8,33.6,2,32.9,1.3c-0.6-0.6-1.5-1.1-2.4-1.3c-0.9-0.2-1.8-0.1-2.7,0.3C27,0.7,26.3,1.3,25.8,2C25.3,2.8,25,3.7,25,4.6c0,1.2,0.5,2.4,1.3,3.2C27.2,8.6,28.4,9.1,29.6,9.1z M39.5,22.3c0,1.7-0.4,3.3-1.2,4.8c-0.8,1.5-2,2.7-3.4,3.6c-1.4,0.9-3.1,1.4-4.8,1.5c-1.7,0.1-3.4-0.3-4.9-1V40h-5.4V22.3c0-2.6,1-5.1,2.9-6.9c1.8-1.8,4.4-2.9,7-2.9c2.6,0,5.1,1,7,2.9S39.5,19.7,39.5,22.3z M34.1,22.3c0-0.9-0.3-1.7-0.8-2.4c-0.5-0.7-1.2-1.3-2-1.6c-0.8-0.3-1.7-0.4-2.6-0.3c-0.9,0.2-1.7,0.6-2.3,1.2c-0.6,0.6-1,1.4-1.2,2.3c-0.2,0.9-0.1,1.7,0.3,2.5c0.3,0.8,0.9,1.5,1.6,2c0.7,0.5,1.6,0.7,2.5,0.7c1.2,0,2.3-0.5,3.1-1.3C33.6,24.6,34.1,23.5,34.1,22.3z M52.4,18c0.9,0,1.8,0,2.6,0.1v-5.2c-0.9-0.2-1.8-0.3-2.6-0.3c-6.1,0-11,4.4-11,9.7s4.9,9.8,11,9.8c0.9,0,1.8-0.1,2.6-0.3v-5.2c-0.9,0.1-1.8,0.1-2.6,0.1c-3.1,0-5.6-2-5.6-4.4S49.3,18,52.4,18z"/>
	<path fill="#878787" d="M87.7,7.4v2.1h4.2v5.8h-2.5V11h-8.3V9.6h4.1V7.4h-6V6h10.1v-4h-8V0.5h10.4V6H94v1.5H87.7z M114.4,0.5v1.3c0,1.9-0.8,4.9-3.5,6.1l0.9,1.1c1.6-0.6,3-1.8,3.8-3.3c0.8,1.5,2.1,2.7,3.7,3.3l1-1.1c-2.8-1.2-3.5-4.1-3.5-6.1V0.5H114.4z M126.1,4.8H124V0.5h-2.5v10.9h2.5V6.3h2.2V4.8z M124.4,15.4v-1.5h-7.9v-3.4h-2.5v3.3c0,0.2,0,0.4,0.1,0.6c0.1,0.2,0.2,0.4,0.4,0.5c0.4,0.3,0.8,0.5,1.3,0.4H124.4z M155.4,15.4v-1.5h-8.7v-3h-2.5v2.8c0,0.2,0,0.4,0.1,0.6c0.1,0.2,0.2,0.4,0.4,0.5c0.4,0.3,0.8,0.4,1.3,0.4H155.4z M156.9,8.6v1.5h-14.6V8.6h6.1V7.3H146c-0.5,0-0.9-0.1-1.3-0.4c-0.2-0.2-0.3-0.3-0.4-0.5c-0.1-0.2-0.1-0.4-0.1-0.6V0.5h2.5v1.7h5.7V0.5h2.5v6.8h-4.1v1.3H156.9z M146.7,5.8h5.7V3.7h-5.7V5.8z M173,8.6h-14.6v1.5h6.1v5.3h2.5v-5.3h6.1V8.6z M162.1,7.3c-0.5,0-0.9-0.1-1.3-0.4c-0.2-0.2-0.3-0.3-0.4-0.5c-0.1-0.2-0.1-0.4-0.1-0.6V0.5h2.5v1.7h5.7V0.5h2.5v6.8H162.1z M168.5,5.8V3.7h-5.7v2.2H168.5z M131.3,4.9c-1,1.8-3.2,3-3.2,3l-1-1.1c2.6-1.6,2.9-4,2.9-5.6V0.5h2.4v0.7c0,1.6,0.3,4,2.9,5.6l-0.9,1.1C134.5,7.9,132.2,6.7,131.3,4.9z M137.8,4.6h-2.9V3.1h2.9V0.5h2.5V8h-2.5V4.6z M140.3,12.2c0,2.1-2.1,3.8-4.7,3.8c-2.6,0-4.6-1.7-4.6-3.8s2.1-3.8,4.6-3.8C138.2,8.4,140.3,10.1,140.3,12.2z M137.9,12.2c0-1.3-1-2.4-2.3-2.4c-1.3,0-2.3,1.1-2.3,2.4s1,2.4,2.3,2.4C136.8,14.6,137.9,13.5,137.9,12.2z M99.3,4.9c-1,1.9-3.3,3-3.3,3l-0.9-1.1c2.7-1.2,3-4.4,3-5.6V0.5h2.3v0.8c0,1.2,0.4,4.4,3,5.6l-0.9,1.1C102.6,7.9,100.3,6.8,99.3,4.9z M106.3,8h-2V0.5h2v2.7h1V0.5h2V8h-2V4.7h-1V8z M109.3,12.2c0,2.1-2.1,3.8-4.7,3.8c-2.6,0-4.6-1.7-4.6-3.8s2.1-3.8,4.6-3.8C107.2,8.4,109.3,10.1,109.3,12.2z M107,12.2c0-1.3-1-2.4-2.3-2.4c-1.3,0-2.3,1.1-2.3,2.4s1,2.4,2.3,2.4C105.9,14.6,107,13.5,107,12.2z M78.2,4.7v1.5H76v5.1h-2.5V0.5H76v4.3H78.2z M68.7,13.9h7.8v1.5H68c-0.5,0-0.9-0.1-1.3-0.4c-0.2-0.1-0.3-0.3-0.4-0.5c-0.1-0.2-0.1-0.4-0.1-0.6v-3.3h2.5V13.9z M67.8,8.8c-2.3,0-4.3-1.6-4.3-3.6c0-0.5,0.1-0.9,0.3-1.3c0.2-0.4,0.5-0.8,0.8-1.1H63V1.3h3.6V0h2.5v1.3h3.5v1.5h-1.6c0.3,0.3,0.6,0.7,0.8,1.1C71.9,4.3,72,4.7,72,5.2C72,7.2,70.1,8.8,67.8,8.8z M67.8,7.3c0.9,0,1.8-1,1.8-2.2s-0.9-2.3-1.8-2.3c-0.9,0-1.8,1-1.8,2.3S66.9,7.3,67.8,7.3z"/>
	<path fill="#313851" d="M75.3,24.3h1.5V20h2.4v11.7h-2.4v-5.1h-1.5v4.3H73V20.3h2.4V24.3z M73.4,40c-0.9,0-1.7-0.1-2.4-0.3c-0.7-0.2-1.4-0.4-1.9-0.7c-0.5-0.3-0.9-0.7-1.2-1.2c-0.3-0.4-0.4-1-0.4-1.5v-0.9c0-0.6,0.1-1.1,0.4-1.5c0.3-0.5,0.7-0.8,1.2-1.2c0.5-0.3,1.2-0.6,1.9-0.7c0.7-0.2,1.5-0.3,2.4-0.3c0.9,0,1.7,0.1,2.4,0.3c0.7,0.2,1.4,0.4,1.9,0.7c0.5,0.3,1,0.7,1.2,1.2c0.3,0.4,0.5,1,0.5,1.5v0.9c0,0.6-0.2,1.1-0.5,1.5c-0.3,0.5-0.7,0.8-1.2,1.2c-0.5,0.3-1.2,0.6-1.9,0.7C75,39.9,74.2,40,73.4,40z M73.4,33.9c-0.5,0-0.9,0-1.3,0.1c-0.4,0.1-0.8,0.2-1.1,0.4c-0.3,0.2-0.6,0.3-0.8,0.5c-0.2,0.2-0.3,0.4-0.3,0.7v0.5c0,0.3,0.1,0.5,0.3,0.7c0.2,0.2,0.5,0.4,0.8,0.5c0.3,0.2,0.7,0.3,1.1,0.4c0.4,0.1,0.9,0.1,1.3,0.1c0.5,0,0.9,0,1.3-0.1c0.4-0.1,0.8-0.2,1.1-0.4c0.3-0.2,0.6-0.3,0.8-0.5c0.2-0.2,0.3-0.4,0.3-0.7v-0.5c0-0.3-0.1-0.5-0.3-0.7c-0.2-0.2-0.4-0.4-0.8-0.5c-0.3-0.2-0.7-0.3-1.1-0.4C74.3,34,73.8,33.9,73.4,33.9z M71.1,30.8c-0.3-0.3-0.7-0.6-1-0.9c-0.4-0.3-0.7-0.6-1-0.9c-0.3-0.3-0.5-0.5-0.7-0.7c-0.2-0.2-0.3-0.4-0.3-0.5h0c-0.1,0.2-0.2,0.4-0.3,0.6c-0.1,0.2-0.4,0.4-0.6,0.8c-0.3,0.3-0.6,0.6-1,1.1c-0.4,0.4-0.9,0.9-1.4,1.4L63,29.7c0.4-0.4,0.9-0.8,1.3-1.2c0.4-0.4,0.8-0.8,1.2-1.3c0.2-0.3,0.4-0.5,0.6-0.8c0.2-0.3,0.3-0.5,0.4-0.8c0.1-0.3,0.2-0.5,0.2-0.8c0-0.3,0.1-0.6,0.1-1V21h2.5v2.8c0,0.3,0,0.7,0,0.9c0,0.3,0.1,0.5,0.2,0.8c0.1,0.3,0.2,0.5,0.4,0.8c0.2,0.2,0.4,0.5,0.6,0.7c0.7,0.7,1.4,1.4,2.2,2.1L71.1,30.8z M95.5,25.1H98v2.3h-2.5v6.4H93V20h2.5V25.1z M86.5,37H96v2.3h-12v-6.6h2.6V37z M86.2,27.7c0,0.2-0.2,0.4-0.4,0.7c-0.2,0.3-0.5,0.5-0.8,0.8c-0.5,0.4-0.9,0.9-1.4,1.3c-0.5,0.4-1,0.9-1.6,1.4l-1.6-1.9c0.5-0.4,1-0.9,1.6-1.3c0.5-0.5,1-1,1.5-1.4c0.5-0.5,0.8-1,1-1.5c0.2-0.5,0.3-1.1,0.3-1.8v-3h2.6v2.9c0,0.4,0,0.7,0.1,1c0,0.3,0.1,0.6,0.2,0.8c0.1,0.2,0.2,0.5,0.4,0.7c0.2,0.2,0.4,0.4,0.7,0.7c0.5,0.4,1,0.8,1.5,1.2s1,0.8,1.5,1.1l-1.5,1.8c-0.4-0.3-0.8-0.6-1.2-1c-0.4-0.3-0.9-0.7-1.4-1.1c-0.3-0.3-0.6-0.5-0.9-0.8C86.4,28,86.3,27.8,86.2,27.7L86.2,27.7z M107.7,40c-0.8,0-1.6-0.1-2.3-0.3c-0.7-0.2-1.3-0.4-1.8-0.8c-0.5-0.3-0.9-0.7-1.2-1.2c-0.3-0.5-0.4-1-0.4-1.6v-0.9c0-0.6,0.1-1.1,0.4-1.6c0.3-0.5,0.7-0.8,1.2-1.2c0.5-0.3,1.1-0.6,1.8-0.8c0.7-0.2,1.5-0.3,2.3-0.3c0.8,0,1.6,0.1,2.3,0.3c0.7,0.2,1.3,0.4,1.8,0.8c0.5,0.3,0.9,0.7,1.2,1.2c0.3,0.5,0.5,1,0.5,1.6v0.9c0,0.6-0.2,1.1-0.5,1.6c-0.3,0.5-0.7,0.8-1.2,1.2c-0.5,0.3-1.1,0.6-1.8,0.8C109.3,39.9,108.5,40,107.7,40z M103.7,27.4c-0.1,0.2-0.2,0.4-0.4,0.6c-0.2,0.2-0.5,0.5-0.9,0.9c-0.5,0.4-1,0.8-1.5,1.3c-0.5,0.4-1,0.8-1.6,1.3l-1.5-1.9c0.6-0.4,1.1-0.9,1.6-1.3c0.5-0.4,1-0.8,1.4-1.3c0.4-0.4,0.7-0.8,1-1.4c0.3-0.5,0.4-1.1,0.4-1.8v-2.9h2.6v2.8c0,0.3,0,0.7,0,0.9c0,0.3,0.1,0.5,0.2,0.8c0.1,0.2,0.2,0.5,0.4,0.7c0.2,0.2,0.4,0.4,0.7,0.6c0.4,0.3,0.8,0.7,1.3,1.1c0.5,0.4,1,0.8,1.5,1.1l-1.4,1.8c-0.5-0.3-0.9-0.7-1.3-1c-0.4-0.3-0.8-0.7-1.2-1c-0.3-0.3-0.7-0.5-0.9-0.8C103.9,27.7,103.7,27.5,103.7,27.4L103.7,27.4z M111,26.2h-3.3v-2.2h3.3V20h2.5v11.5H111V26.2z M107.7,33.8c-0.4,0-0.9,0-1.3,0.1c-0.4,0.1-0.8,0.2-1.1,0.4c-0.3,0.2-0.6,0.3-0.7,0.6c-0.2,0.2-0.3,0.4-0.3,0.7v0.5c0,0.2,0.1,0.5,0.3,0.7c0.2,0.2,0.4,0.4,0.7,0.6c0.3,0.2,0.7,0.3,1.1,0.4c0.4,0.1,0.8,0.1,1.3,0.1c0.4,0,0.9,0,1.3-0.1c0.4-0.1,0.8-0.2,1.1-0.4c0.3-0.2,0.6-0.3,0.7-0.6c0.2-0.2,0.3-0.4,0.3-0.7v-0.5c0-0.2-0.1-0.5-0.3-0.7c-0.2-0.2-0.4-0.4-0.7-0.6c-0.3-0.2-0.7-0.3-1.1-0.4C108.6,33.8,108.2,33.8,107.7,33.8z M125,40c-0.8,0-1.6-0.1-2.3-0.3c-0.7-0.2-1.3-0.4-1.8-0.8c-0.5-0.3-0.9-0.7-1.2-1.2c-0.3-0.5-0.4-1-0.4-1.6v-0.9c0-0.6,0.1-1.1,0.4-1.6c0.3-0.5,0.7-0.9,1.2-1.2c0.5-0.3,1.1-0.6,1.8-0.8c0.7-0.2,1.5-0.3,2.3-0.3c0.8,0,1.6,0.1,2.3,0.3c0.7,0.2,1.3,0.4,1.9,0.8c0.5,0.3,0.9,0.7,1.2,1.2c0.3,0.5,0.5,1,0.5,1.6v0.9c0,0.6-0.2,1.1-0.5,1.6c-0.3,0.5-0.7,0.9-1.2,1.2c-0.5,0.3-1.1,0.6-1.9,0.8C126.6,39.9,125.8,40,125,40z M125,33.7c-0.4,0-0.9,0-1.3,0.1c-0.4,0.1-0.8,0.2-1.1,0.4c-0.3,0.2-0.6,0.3-0.7,0.6c-0.2,0.2-0.3,0.4-0.3,0.7v0.5c0,0.3,0.1,0.5,0.3,0.7c0.2,0.2,0.4,0.4,0.7,0.6c0.3,0.2,0.7,0.3,1.1,0.4c0.4,0.1,0.8,0.1,1.3,0.1c0.4,0,0.9,0,1.3-0.1c0.4-0.1,0.8-0.2,1.1-0.4c0.3-0.2,0.6-0.3,0.7-0.6c0.2-0.2,0.3-0.4,0.3-0.7v-0.5c0-0.3-0.1-0.5-0.3-0.7c-0.2-0.2-0.4-0.4-0.7-0.6c-0.3-0.2-0.7-0.3-1.1-0.4C125.9,33.8,125.5,33.7,125,33.7z M128.3,22.7V20h2.5v11.5h-2.5V29h-3.1v-2.2h3.1v-1.8h-2.8v-2.2H128.3z M115.5,29.7c1.4-0.6,2.6-1.2,3.4-1.6c0.9-0.4,1.5-0.9,2-1.3s0.8-0.8,0.9-1.2c0.1-0.4,0.2-0.9,0.2-1.4v-0.9h-5.7v-2.2h8.2v3.4c0,0.6-0.1,1.1-0.2,1.5c-0.1,0.4-0.3,0.9-0.5,1.3c-0.2,0.4-0.5,0.8-0.9,1.1c-0.4,0.3-0.9,0.7-1.5,1.1c-0.6,0.4-1.3,0.7-2.1,1.1c-0.8,0.4-1.7,0.8-2.8,1.3L115.5,29.7z M145.6,22.2V20h2.5v11.4h-2.5v-2.6h-2.5v-2.2h2.5v-2.2h-2.5v-2.2H145.6z M137.7,30.4c-0.8,0-1.4-0.1-2-0.4c-0.6-0.3-1.1-0.6-1.5-1c-0.4-0.4-0.7-0.9-0.9-1.4c-0.2-0.5-0.3-1.1-0.3-1.6v-0.9c0-0.6,0.1-1.1,0.3-1.6c0.2-0.5,0.5-1,0.9-1.4c0.4-0.4,0.9-0.7,1.5-1c0.6-0.3,1.3-0.4,2-0.4c0.8,0,1.4,0.1,2,0.4c0.6,0.3,1.1,0.6,1.5,1c0.4,0.4,0.7,0.9,0.9,1.4c0.2,0.5,0.3,1.1,0.3,1.6V26c0,0.6-0.1,1.1-0.3,1.6c-0.2,0.5-0.5,1-0.9,1.4c-0.4,0.4-0.9,0.7-1.5,1C139.1,30.3,138.4,30.4,137.7,30.4z M137.7,22.9c-0.4,0-0.7,0.1-1,0.2c-0.3,0.1-0.5,0.3-0.7,0.5c-0.2,0.2-0.4,0.4-0.5,0.7c-0.1,0.3-0.1,0.5-0.1,0.8v0.8c0,0.3,0,0.5,0.1,0.8c0.1,0.3,0.3,0.5,0.5,0.7c0.2,0.2,0.4,0.4,0.7,0.5c0.3,0.1,0.6,0.2,1,0.2c0.4,0,0.7-0.1,1-0.2c0.3-0.1,0.5-0.3,0.7-0.5c0.2-0.2,0.3-0.4,0.4-0.7c0.1-0.3,0.2-0.5,0.2-0.8v-0.8c0-0.3-0.1-0.5-0.2-0.8c-0.1-0.3-0.2-0.5-0.4-0.7c-0.2-0.2-0.5-0.4-0.7-0.5C138.4,23,138.1,22.9,137.7,22.9z M142.3,40c-0.8,0-1.6-0.1-2.3-0.3c-0.7-0.2-1.3-0.4-1.9-0.7c-0.5-0.3-0.9-0.7-1.2-1.2c-0.3-0.5-0.4-1-0.4-1.6v-0.9c0-0.6,0.1-1.1,0.4-1.6c0.3-0.5,0.7-0.9,1.2-1.2c0.5-0.3,1.1-0.6,1.9-0.7c0.7-0.2,1.5-0.3,2.3-0.3c0.8,0,1.6,0.1,2.3,0.3c0.7,0.2,1.3,0.4,1.9,0.7c0.5,0.3,0.9,0.7,1.2,1.2c0.3,0.5,0.5,1,0.5,1.6v0.9c0,0.6-0.2,1.1-0.5,1.6c-0.3,0.5-0.7,0.9-1.2,1.2c-0.5,0.3-1.1,0.6-1.9,0.7C143.9,39.9,143.2,40,142.3,40z M142.3,33.7c-0.4,0-0.9,0-1.3,0.1c-0.4,0.1-0.8,0.2-1.1,0.4c-0.3,0.2-0.6,0.4-0.7,0.6c-0.2,0.2-0.3,0.5-0.3,0.7V36c0,0.3,0.1,0.5,0.3,0.7c0.2,0.2,0.4,0.4,0.7,0.6c0.3,0.2,0.7,0.3,1.1,0.4c0.4,0.1,0.8,0.1,1.3,0.1c0.4,0,0.9,0,1.3-0.1c0.4-0.1,0.8-0.2,1.1-0.4c0.3-0.2,0.6-0.4,0.7-0.6c0.2-0.2,0.3-0.5,0.3-0.7v-0.5c0-0.3-0.1-0.5-0.3-0.7c-0.2-0.2-0.4-0.4-0.7-0.6c-0.3-0.2-0.7-0.3-1.1-0.4C143.2,33.7,142.8,33.7,142.3,33.7z M150.8,21.7h10v2.3h-3.6v2.2c0,0.4,0,0.8,0.1,1.1c0,0.3,0.1,0.6,0.2,0.9c0.1,0.3,0.3,0.6,0.4,0.9c0.2,0.3,0.4,0.6,0.7,0.9c0.4,0.5,0.9,1,1.4,1.5c0.5,0.5,1,1,1.5,1.5l-1.6,1.8c-0.4-0.4-0.9-0.8-1.3-1.3c-0.4-0.4-0.8-0.9-1.2-1.3c-0.4-0.4-0.7-0.8-1-1.1c-0.3-0.3-0.4-0.6-0.5-0.8h0c-0.1,0.2-0.3,0.5-0.6,0.8c-0.3,0.4-0.6,0.7-0.9,1.1c-0.4,0.4-0.8,0.8-1.2,1.3c-0.4,0.4-0.9,0.9-1.4,1.4l-1.7-1.8c1.1-1,2.1-2,3-3c0.3-0.3,0.5-0.7,0.7-1c0.2-0.3,0.4-0.6,0.5-0.9c0.1-0.3,0.2-0.6,0.2-1c0.1-0.3,0.1-0.7,0.1-1.2v-2.2h-3.8V21.7z M165.6,39.4h-2.6V20h2.6V39.4z M173.3,27.8c-0.7,0-1.3-0.1-1.9-0.3c-0.6-0.2-1.1-0.4-1.5-0.7c-0.4-0.3-0.7-0.7-1-1.1c-0.2-0.4-0.4-0.9-0.4-1.4v-0.6c0-0.5,0.1-1,0.4-1.4c0.2-0.4,0.6-0.8,1-1.1c0.4-0.3,0.9-0.5,1.5-0.7c0.6-0.2,1.2-0.3,1.9-0.3c0.7,0,1.3,0.1,1.9,0.3c0.6,0.2,1.1,0.4,1.5,0.7c0.4,0.3,0.8,0.7,1,1.1c0.2,0.4,0.4,0.9,0.4,1.4v0.6c0,0.5-0.1,1-0.4,1.4c-0.2,0.4-0.6,0.8-1,1.1c-0.4,0.3-0.9,0.5-1.5,0.7C174.6,27.7,174,27.8,173.3,27.8z M176.7,31.4h3.7V20h2.5v15h-2.5v-1.4h-3.7V31.4z M173,37h10.2v2.3h-12.8V34h2.6V37z M167.4,28.6c1.5,0,2.9,0,4.1,0c1.2,0,2.2,0,3.2-0.1c0.9,0,1.8-0.1,2.5-0.1c0.7,0,1.4-0.1,2.1-0.2l0.2,2.2c-0.6,0.1-1.4,0.2-2.2,0.2c-0.8,0-1.8,0.1-2.9,0.1v2.5h-2.5v-2.5c-0.7,0-1.3,0-2.1,0s-1.5,0-2.3,0V28.6z M173.3,22.5c-0.7,0-1.2,0.1-1.7,0.4c-0.4,0.3-0.6,0.6-0.6,1v0.3c0,0.4,0.2,0.7,0.6,1c0.4,0.3,1,0.4,1.7,0.4c0.7,0,1.2-0.1,1.7-0.4c0.4-0.3,0.6-0.6,0.6-1v-0.3c0-0.4-0.2-0.7-0.6-1C174.6,22.6,174,22.5,173.3,22.5z M200.2,39.4h-2.6V20h2.6V39.4z M193.1,29.8c0.4,0.5,0.9,1,1.4,1.5c0.5,0.5,1,1,1.5,1.5l-1.6,1.8c-0.5-0.4-0.9-0.9-1.3-1.3c-0.4-0.4-0.8-0.9-1.2-1.3c-0.4-0.4-0.7-0.8-1-1.1c-0.3-0.3-0.4-0.6-0.5-0.8h0c-0.1,0.2-0.3,0.5-0.6,0.9c-0.3,0.4-0.6,0.7-0.9,1.1c-0.4,0.4-0.8,0.8-1.2,1.3c-0.4,0.4-0.9,0.9-1.5,1.5l-1.7-1.8c1.1-1.1,2.1-2.1,3-3.1c0.3-0.3,0.5-0.7,0.7-1c0.2-0.3,0.4-0.6,0.5-0.9c0.1-0.3,0.2-0.7,0.3-1c0.1-0.3,0.1-0.7,0.1-1.2v-4.5h2.6v4.5c0,0.4,0,0.8,0,1.1c0,0.3,0.1,0.7,0.2,1c0.1,0.3,0.2,0.6,0.4,0.9C192.6,29.2,192.8,29.5,193.1,29.8z M218.9,34.7V37h-17.1v-2.2H218.9z M210.4,27.7c-0.1,0.2-0.3,0.5-0.7,0.8c-0.3,0.3-0.8,0.6-1.3,0.9c-0.6,0.4-1.2,0.8-1.9,1.3c-0.7,0.4-1.6,1-2.5,1.5l-1.2-2.1c0.7-0.4,1.5-0.9,2.2-1.3c0.8-0.5,1.4-0.9,2-1.3c0.4-0.3,0.7-0.6,1-0.8c0.3-0.3,0.5-0.6,0.6-0.9c0.2-0.3,0.3-0.7,0.3-1s0.1-0.8,0.1-1.2v-2.2h2.6v2.2c0,0.5,0,0.9,0.1,1.2s0.2,0.7,0.3,1c0.2,0.3,0.4,0.6,0.6,0.9c0.3,0.3,0.6,0.6,1,0.8c0.6,0.4,1.3,0.9,2,1.3c0.8,0.5,1.5,0.9,2.2,1.3l-1.2,2c-1-0.6-1.8-1.1-2.5-1.5c-0.7-0.5-1.4-0.9-1.9-1.3c-0.5-0.4-0.9-0.7-1.2-0.9C210.7,28.2,210.5,27.9,210.4,27.7L210.4,27.7z M222.9,32.2H235v7.2h-12.1V32.2z M227,21v2.2h-5v1.6h4.2v2.1H222v1.6c1.1,0,2,0,3,0c0.9,0,1.8-0.1,2.7-0.2l0.2,2.1c-0.5,0.1-1,0.1-1.5,0.1c-0.5,0-1.1,0.1-1.8,0.1c-0.7,0-1.4,0-2.2,0c-0.8,0-1.8,0-2.8,0V21H227z M229,26.8h-1.8v-2.3h1.8v-4.3h2.4v11H229V26.8z M235,31.3h-2.4V20h2.4V31.3z M225.4,37.3h7.1v-2.9h-7.1V37.3z"/>
</svg>		