<svg width="24" height="24" viewBox="0 0 24 24" fill="none" xmlns="http://www.w3.org/2000/svg">
<path d="M20.82 4H3.18C3.081 4 3 4.08182 3 4.18182V5.63636C3 5.73636 3.081 5.81818 3.18 5.81818H20.82C20.919 5.81818 21 5.73636 21 5.63636V4.18182C21 4.08182 20.919 4 20.82 4ZM20.82 18.1818H3.18C3.081 18.1818 3 18.2636 3 18.3636V19.8182C3 19.9182 3.081 20 3.18 20H20.82C20.919 20 21 19.9182 21 19.8182V18.3636C21 18.2636 20.919 18.1818 20.82 18.1818ZM20.82 11.0909H3.18C3.081 11.0909 3 11.1727 3 11.2727V12.7273C3 12.8273 3.081 12.9091 3.18 12.9091H20.82C20.919 12.9091 21 12.8273 21 12.7273V11.2727C21 11.1727 20.919 11.0909 20.82 11.0909Z" fill="black"/>
</svg>
