<svg width="48" height="48" viewBox="0 0 48 48" fill="none" xmlns="http://www.w3.org/2000/svg">
<path d="M17.9388 27.8087H15.313C15.0841 27.8082 14.8575 27.8535 14.6459 27.9419C14.4344 28.0304 14.2421 28.1602 14.08 28.3241C13.747 28.6578 13.5547 29.1095 13.5435 29.5841V37.0487C13.5547 37.5233 13.747 37.975 14.08 38.3087C14.2421 38.4725 14.4344 38.6024 14.6459 38.6909C14.8575 38.7793 15.0841 38.8246 15.313 38.8241H17.9388C18.1701 38.8335 18.4008 38.7946 18.6165 38.7096C19.0408 38.5277 19.3784 38.1853 19.5577 37.755C19.6538 37.5351 19.7081 37.2986 19.7177 37.0582V29.5937C19.7081 29.3532 19.6538 29.1168 19.5577 28.8968C19.466 28.6777 19.3315 28.4796 19.1623 28.3145C18.9937 28.1506 18.7956 28.021 18.5788 27.9328C18.3631 27.8478 18.1324 27.8087 17.9012 27.8182L17.9388 27.8087ZM18.3153 37.0487C18.3242 37.096 18.3242 37.1445 18.3153 37.1918C18.2983 37.2373 18.2689 37.2771 18.2306 37.3064C18.1958 37.3406 18.1541 37.3667 18.1082 37.3827C18.0616 37.3922 18.0137 37.3922 17.9671 37.3827H15.3412C15.2978 37.3926 15.2528 37.3926 15.2094 37.3827C15.1327 37.3427 15.0701 37.2793 15.0306 37.2014C15.0227 37.1572 15.0227 37.1119 15.0306 37.0677V29.6032C15.0305 29.5569 15.0396 29.5111 15.0574 29.4684C15.0752 29.4258 15.1013 29.3872 15.1341 29.355C15.1974 29.2935 15.2818 29.2593 15.3694 29.2595H17.9953C18.0413 29.2455 18.0905 29.2455 18.1365 29.2595C18.1817 29.2722 18.2236 29.295 18.2589 29.3264C18.2954 29.3612 18.3242 29.4035 18.3435 29.4505C18.3524 29.4978 18.3524 29.5464 18.3435 29.5937L18.3153 37.0487ZM30.0236 3H10.4847C10.1582 3.00137 9.83511 3.06875 9.53453 3.19823C9.23395 3.32771 8.96187 3.5167 8.73415 3.7541C8.26256 4.23637 7.99856 4.8885 8.00001 5.56773V42.4323C7.99856 43.1115 8.26256 43.7636 8.73415 44.2459C8.96056 44.4851 9.23238 44.6752 9.53327 44.8048C9.83415 44.9344 10.1578 45.0008 10.4847 45H37.5153C37.8434 44.9999 38.1682 44.9332 38.4705 44.8037C38.7728 44.6741 39.0465 44.4845 39.2753 44.2459C39.74 43.7598 39.9999 43.1094 40 42.4323V13.3282L30.0236 3ZM30.4471 5.51999L38.0423 13.3759H30.4471V5.51999ZM38.5695 42.4323C38.5674 42.7209 38.4562 42.9976 38.2588 43.2055C38.1616 43.3053 38.0458 43.3845 37.9182 43.4386C37.7906 43.4927 37.6536 43.5205 37.5153 43.5205H10.4847C10.2057 43.5184 9.93873 43.4053 9.74122 43.2055C9.54385 42.9976 9.43266 42.7209 9.43061 42.4323V5.56773C9.43115 5.28168 9.54275 5.00733 9.74122 4.80408C9.8373 4.7021 9.95262 4.62082 10.0804 4.56506C10.2081 4.5093 10.3457 4.48021 10.4847 4.47953H29.0165V13.5764C29.0159 13.7446 29.048 13.9112 29.111 14.0669C29.174 14.2225 29.2666 14.3639 29.3836 14.4832C29.4969 14.603 29.6327 14.6985 29.783 14.7641C29.9334 14.8296 30.0952 14.864 30.2588 14.865H38.5695V42.4323ZM28.5365 26.8636V36.915C28.5521 37.4289 28.7609 37.9172 29.12 38.28C29.4714 38.6385 29.9487 38.8411 30.4471 38.8432H32.7906C33.0419 38.8518 33.2921 38.8062 33.5247 38.7096C33.762 38.6213 33.9774 38.4812 34.1553 38.2991C34.3369 38.1182 34.4837 37.9045 34.5882 37.6691C34.6836 37.4288 34.7377 37.1738 34.7482 36.915V26.8636C34.7387 26.6078 34.6845 26.3558 34.5882 26.1191C34.484 25.8807 34.3372 25.6639 34.1553 25.4796C33.9723 25.304 33.7584 25.1647 33.5247 25.0691C33.2914 24.9757 33.0412 24.9334 32.7906 24.945H30.4471C30.1998 24.9377 29.9536 24.9799 29.7224 25.0691C29.4894 25.1651 29.2778 25.3075 29.1 25.4878C28.9221 25.6682 28.7818 25.8828 28.6871 26.1191C28.5903 26.3552 28.5392 26.6079 28.5365 26.8636V26.8636ZM29.9765 26.8636C29.9621 26.8008 29.9621 26.7356 29.9765 26.6728C29.996 26.6075 30.0317 26.5484 30.08 26.5009C30.1436 26.4473 30.2232 26.417 30.3059 26.415C30.3679 26.401 30.4322 26.401 30.4941 26.415H32.8377C32.9028 26.4008 32.9702 26.4008 33.0353 26.415C33.0997 26.4348 33.158 26.471 33.2047 26.52C33.2535 26.5674 33.2947 26.6222 33.3271 26.6823C33.336 26.7488 33.336 26.8162 33.3271 26.8827V36.915C33.3159 37.05 33.2555 37.176 33.1577 37.2682C33.061 37.3607 32.933 37.412 32.8 37.4114H30.4565C30.3293 37.4111 30.2074 37.3596 30.1176 37.2682C30.0321 37.1711 29.9851 37.0452 29.9859 36.915L29.9765 26.8636ZM25.2706 22.9596H22.9365C22.3939 23.0002 21.8895 23.2577 21.5341 23.6755C21.1811 24.094 20.9993 24.6336 21.0259 25.1837V36.6382C21.0066 36.9106 21.0451 37.184 21.1388 37.44C21.2257 37.6957 21.362 37.9313 21.5398 38.1329C21.7176 38.3345 21.9332 38.4981 22.1741 38.6141C22.4105 38.7373 22.6709 38.8057 22.9365 38.8146H25.2706C25.8109 38.7862 26.3183 38.5427 26.6824 38.1369C27.0519 37.7298 27.2481 37.1912 27.2282 36.6382V25.1837C27.2423 24.9052 27.204 24.6266 27.1153 24.3627C27.02 24.104 26.8797 23.8648 26.7012 23.6564C26.5173 23.4511 26.297 23.2828 26.0518 23.16C25.8056 23.0455 25.5409 22.9775 25.2706 22.9596V22.9596ZM25.7977 36.6C25.7977 36.7422 25.7437 36.8789 25.6471 36.9818C25.5981 37.033 25.5397 37.0736 25.475 37.1015C25.4104 37.1294 25.3409 37.1439 25.2706 37.1441H22.9365C22.8714 37.1586 22.804 37.1586 22.7389 37.1441C22.6761 37.1171 22.621 37.0744 22.5788 37.02C22.5324 36.971 22.4971 36.9124 22.4753 36.8482C22.4614 36.7789 22.4614 36.7075 22.4753 36.6382V25.1837C22.4614 25.1144 22.4614 25.0429 22.4753 24.9736C22.4945 24.9054 22.5301 24.8431 22.5788 24.7923C22.6184 24.7331 22.674 24.6867 22.7389 24.6586C22.7987 24.621 22.8664 24.5982 22.9365 24.5919H25.2706C25.4147 24.6075 25.5483 24.6752 25.6471 24.7827C25.7413 24.8948 25.7945 25.0364 25.7977 25.1837V36.6Z" fill="black"/>
</svg>
