<svg width="48" height="48" viewBox="0 0 48 48" fill="none" xmlns="http://www.w3.org/2000/svg">
<path d="M36.9123 45H11.0877C10.2688 45 9.48343 44.6872 8.90437 44.1304C8.32531 43.5735 8 42.8183 8 42.0309V10.7198C8 10.3299 8.07987 9.94378 8.23504 9.58355C8.39021 9.22331 8.61765 8.896 8.90437 8.62029C9.19109 8.34458 9.53148 8.12587 9.9061 7.97666C10.2807 7.82744 10.6822 7.75064 11.0877 7.75064H16.9825V9.37018H11.0877C10.7155 9.37018 10.3585 9.51237 10.0953 9.76547C9.83208 10.0186 9.68421 10.3619 9.68421 10.7198V42.0309C9.68421 42.3888 9.83208 42.7321 10.0953 42.9852C10.3585 43.2383 10.7155 43.3805 11.0877 43.3805H36.9123C37.2845 43.3805 37.6415 43.2383 37.9047 42.9852C38.1679 42.7321 38.3158 42.3888 38.3158 42.0309V10.7198C38.3158 10.5426 38.2795 10.3671 38.209 10.2033C38.1384 10.0396 38.035 9.8908 37.9047 9.76547C37.7744 9.64015 37.6197 9.54074 37.4494 9.47291C37.2791 9.40509 37.0966 9.37018 36.9123 9.37018H31.0175V7.75064H36.9123C37.7312 7.75064 38.5166 8.06346 39.0956 8.62029C39.6747 9.17711 40 9.93233 40 10.7198V42.0309C40 42.8183 39.6747 43.5735 39.0956 44.1304C38.5166 44.6872 37.7312 45 36.9123 45ZM31.0175 7.37275V9.53213C31.0175 10.0333 30.8105 10.5138 30.442 10.8682C30.0735 11.2225 29.5738 11.4216 29.0526 11.4216H18.9474C18.4262 11.4216 17.9265 11.2225 17.558 10.8682C17.1895 10.5138 16.9825 10.0333 16.9825 9.53213V7.37275C16.9825 6.87163 17.1895 6.39104 17.558 6.0367C17.9265 5.68236 18.4262 5.48329 18.9474 5.48329H20.0702L20.407 4.61954C20.8 3.75578 21.1368 3 22.3158 3H25.6842C26.807 3 27.0877 3.59383 27.4807 4.34961L27.593 4.61954L27.9298 5.48329H29.0526C29.5738 5.48329 30.0735 5.68236 30.442 6.0367C30.8105 6.39104 31.0175 6.87163 31.0175 7.37275ZM29.3333 7.37275C29.3333 7.30116 29.3038 7.23251 29.2511 7.18189C29.1985 7.13127 29.1271 7.10283 29.0526 7.10283H26.807L25.9649 5.1054C25.877 4.94933 25.8019 4.78688 25.7404 4.61954H22.2596L21.9789 5.21337L21.193 7.10283H18.9474C18.8729 7.10283 18.8015 7.13127 18.7489 7.18189C18.6962 7.23251 18.6667 7.30116 18.6667 7.37275V9.53213C18.6667 9.60372 18.6962 9.67238 18.7489 9.723C18.8015 9.77362 18.8729 9.80206 18.9474 9.80206H29.0526C29.1271 9.80206 29.1985 9.77362 29.2511 9.723C29.3038 9.67238 29.3333 9.60372 29.3333 9.53213V7.37275ZM24 6.13111C23.8511 6.13111 23.7083 6.18798 23.603 6.28922C23.4977 6.39046 23.4386 6.52777 23.4386 6.67095C23.4386 6.81413 23.4977 6.95144 23.603 7.05268C23.7083 7.15392 23.8511 7.2108 24 7.2108C24.1489 7.2108 24.2917 7.15392 24.397 7.05268C24.5023 6.95144 24.5614 6.81413 24.5614 6.67095C24.5614 6.52777 24.5023 6.39046 24.397 6.28922C24.2917 6.18798 24.1489 6.13111 24 6.13111ZM16.7018 21.5707C16.5838 21.5771 16.466 21.5559 16.3584 21.5089C16.2508 21.4619 16.1567 21.3905 16.0842 21.3008L14.6807 19.7892C14.5301 19.622 14.452 19.4056 14.4625 19.1846C14.4729 18.9636 14.5711 18.7549 14.7368 18.6015C14.9135 18.479 15.1306 18.4224 15.3474 18.4422C15.5643 18.4621 15.7663 18.5571 15.9158 18.7095L16.7018 19.5733L18.6105 17.5219C18.6787 17.4268 18.7673 17.3469 18.8702 17.2875C18.9732 17.2281 19.0881 17.1905 19.2074 17.1773C19.3267 17.1641 19.4476 17.1756 19.5618 17.2111C19.6761 17.2465 19.7812 17.305 19.8701 17.3826C19.9589 17.4603 20.0294 17.5553 20.077 17.6614C20.1245 17.7674 20.1479 17.882 20.1455 17.9974C20.1432 18.1129 20.1153 18.2265 20.0635 18.3307C20.0118 18.4349 19.9375 18.5272 19.8456 18.6015L17.3193 21.3008C17.2468 21.3905 17.1527 21.4619 17.0451 21.5089C16.9376 21.5559 16.8197 21.5771 16.7018 21.5707ZM17.3193 26.5913L19.8456 23.892C19.9843 23.7199 20.0549 23.5059 20.0446 23.2883C20.0343 23.0707 19.9439 22.8637 19.7895 22.7044C19.6248 22.563 19.409 22.4894 19.1885 22.4995C18.968 22.5096 18.7605 22.6026 18.6105 22.7584L16.7018 24.8098L15.9158 23.946C15.7597 23.8198 15.5614 23.7524 15.3575 23.7561C15.1537 23.7599 14.9582 23.8347 14.8073 23.9666C14.6564 24.0985 14.5605 24.2785 14.5372 24.4733C14.5139 24.6681 14.5649 24.8643 14.6807 25.0257L16.0842 26.5373C16.1965 26.7532 16.4211 26.8072 16.7018 26.8612C16.9364 26.8523 17.1581 26.7554 17.3193 26.5913ZM17.3193 31.8278L19.8456 29.1285C19.9926 28.9702 20.0691 28.7627 20.0586 28.5507C20.0481 28.3386 19.9515 28.139 19.7895 27.9949C19.7118 27.9177 19.6179 27.8573 19.5141 27.8178C19.4103 27.7782 19.2989 27.7604 19.1873 27.7655C19.0758 27.7706 18.9666 27.7986 18.8672 27.8474C18.7677 27.8963 18.6802 27.9649 18.6105 28.0488L16.7018 30.0463L15.9158 29.1825C15.7597 29.0563 15.5614 28.9889 15.3575 28.9926C15.1537 28.9964 14.9582 29.0712 14.8073 29.2031C14.6564 29.335 14.5605 29.515 14.5372 29.7098C14.5139 29.9046 14.5649 30.1008 14.6807 30.2622L16.0842 31.8278C16.1567 31.9175 16.2508 31.9889 16.3584 32.0359C16.466 32.0829 16.5838 32.1041 16.7018 32.0977C16.9364 32.0888 17.1581 31.9919 17.3193 31.8278ZM32.3649 20.2211H22.8772C22.6539 20.2211 22.4397 20.1358 22.2817 19.9839C22.1238 19.832 22.0351 19.6261 22.0351 19.4113C22.0351 19.1965 22.1238 18.9906 22.2817 18.8387C22.4397 18.6869 22.6539 18.6015 22.8772 18.6015H32.3649C32.4755 18.6015 32.585 18.6225 32.6872 18.6632C32.7893 18.7039 32.8822 18.7635 32.9604 18.8387C33.0386 18.9139 33.1006 19.0032 33.1429 19.1014C33.1852 19.1997 33.207 19.305 33.207 19.4113C33.207 19.5177 33.1852 19.623 33.1429 19.7212C33.1006 19.8194 33.0386 19.9087 32.9604 19.9839C32.8822 20.0591 32.7893 20.1187 32.6872 20.1594C32.585 20.2001 32.4755 20.2211 32.3649 20.2211ZM33.207 24.7018C33.207 24.487 33.1183 24.2811 32.9604 24.1292C32.8024 23.9773 32.5883 23.892 32.3649 23.892H22.8772C22.6539 23.892 22.4397 23.9773 22.2817 24.1292C22.1238 24.2811 22.0351 24.487 22.0351 24.7018C22.0351 24.9166 22.1238 25.1225 22.2817 25.2744C22.4397 25.4263 22.6539 25.5116 22.8772 25.5116H32.3649C32.4755 25.5116 32.585 25.4906 32.6872 25.4499C32.7893 25.4092 32.8822 25.3496 32.9604 25.2744C33.0386 25.1992 33.1006 25.1099 33.1429 25.0117C33.1852 24.9134 33.207 24.8081 33.207 24.7018ZM33.207 29.9383C33.207 29.7235 33.1183 29.5176 32.9604 29.3657C32.8024 29.2138 32.5883 29.1285 32.3649 29.1285H22.8772C22.6539 29.1285 22.4397 29.2138 22.2817 29.3657C22.1238 29.5176 22.0351 29.7235 22.0351 29.9383C22.0351 30.1531 22.1238 30.359 22.2817 30.5109C22.4397 30.6628 22.6539 30.7481 22.8772 30.7481H32.3649C32.4755 30.7481 32.585 30.7271 32.6872 30.6864C32.7893 30.6457 32.8822 30.5861 32.9604 30.5109C33.0386 30.4357 33.1006 30.3464 33.1429 30.2482C33.1852 30.1499 33.207 30.0446 33.207 29.9383Z" fill="black"/>
</svg>
