<svg width="48" height="48" viewBox="0 0 48 48" fill="none" xmlns="http://www.w3.org/2000/svg">
<path d="M38.37 27.24C37.0216 27.2083 35.6942 27.5788 34.5572 28.3044C33.4202 29.0301 32.5251 30.0779 31.986 31.3143C31.4469 32.5507 31.2882 33.9196 31.5303 35.2465C31.7723 36.5735 32.404 37.7982 33.3449 38.7647C34.2858 39.7311 35.4932 40.3954 36.8132 40.6729C38.1332 40.9504 39.5059 40.8285 40.7563 40.3227C42.0066 39.8169 43.0781 38.9501 43.8339 37.833C44.5897 36.7158 44.9957 35.3989 45 34.05C45.0132 33.1672 44.8521 32.2904 44.5258 31.4699C44.1995 30.6495 43.7145 29.9015 43.0986 29.2689C42.4826 28.6362 41.7479 28.1313 40.9365 27.7832C40.1251 27.435 39.2529 27.2505 38.37 27.24ZM41.21 32.05C41.1861 32.1531 41.1381 32.2491 41.07 32.33L38.07 36.58C38.0075 36.6792 37.9216 36.7616 37.82 36.82C37.7178 36.8723 37.6048 36.8997 37.49 36.9C37.3793 36.902 37.2698 36.878 37.17 36.83C37.0698 36.7878 36.9807 36.7227 36.91 36.64L35.05 34.55C34.9262 34.3799 34.8725 34.1687 34.9 33.96C34.9139 33.8569 34.9485 33.7577 35.0018 33.6683C35.055 33.5789 35.1259 33.5013 35.21 33.44C35.3753 33.3182 35.5795 33.261 35.784 33.2794C35.9885 33.2979 36.1792 33.3906 36.32 33.54L37.32 34.87L39.74 31.47C39.7976 31.3825 39.8725 31.3076 39.96 31.25C40.0479 31.1915 40.1464 31.1508 40.25 31.13C40.3518 31.105 40.4582 31.105 40.56 31.13C40.6636 31.1508 40.7621 31.1915 40.85 31.25C40.9319 31.312 41 31.3903 41.05 31.48C41.1025 31.569 41.1365 31.6676 41.15 31.77C41.1867 31.859 41.207 31.9539 41.21 32.05Z" fill="black"/>
<path d="M31.96 23.2101C32.0393 23.2865 32.1023 23.3782 32.1453 23.4796C32.1884 23.5809 32.2105 23.6899 32.2105 23.8001C32.2105 23.9102 32.1884 24.0192 32.1453 24.1205C32.1023 24.2219 32.0393 24.3136 31.96 24.3901C31.8831 24.4687 31.7914 24.5314 31.6901 24.5743C31.5888 24.6172 31.48 24.6396 31.37 24.6401H21.88C21.7684 24.6403 21.6579 24.6184 21.5549 24.5754C21.4518 24.5325 21.3584 24.4695 21.28 24.3901C21.1273 24.2316 21.0419 24.0201 21.0419 23.8001C21.0419 23.58 21.1273 23.3685 21.28 23.2101C21.3584 23.1306 21.4518 23.0676 21.5549 23.0247C21.6579 22.9817 21.7684 22.9598 21.88 22.9601H31.37C31.48 22.9605 31.5888 22.9829 31.6901 23.0258C31.7914 23.0687 31.8831 23.1314 31.96 23.2101ZM31.37 28.3501H21.88C21.7684 28.3498 21.6579 28.3717 21.5549 28.4147C21.4518 28.4576 21.3584 28.5206 21.28 28.6001C21.1266 28.7602 21.041 28.9733 21.041 29.1951C21.041 29.4168 21.1266 29.63 21.28 29.7901C21.3584 29.8695 21.4518 29.9325 21.5549 29.9754C21.6579 30.0184 21.7684 30.0403 21.88 30.0401H31.37C31.5783 30.0174 31.7708 29.9186 31.9107 29.7626C32.0506 29.6067 32.128 29.4045 32.128 29.1951C32.128 28.9856 32.0506 28.7834 31.9107 28.6275C31.7708 28.4715 31.5783 28.3727 31.37 28.3501ZM18.87 27.1301C18.7803 27.0492 18.6747 26.9879 18.56 26.9501C18.4447 26.9249 18.3253 26.9249 18.21 26.9501C18.0898 26.9606 17.9736 26.9982 17.87 27.0601C17.767 27.1245 17.6785 27.2097 17.61 27.3101L15.7 29.4401L14.92 28.5401C14.8648 28.4223 14.7783 28.322 14.67 28.2501C14.5719 28.1691 14.455 28.1141 14.33 28.0901C14.2051 28.0599 14.0749 28.0599 13.95 28.0901C13.823 28.1195 13.7058 28.1815 13.61 28.2701C13.5172 28.3542 13.4424 28.4563 13.39 28.5701C13.3422 28.691 13.3184 28.82 13.32 28.9501C13.3259 29.0774 13.3637 29.2012 13.43 29.3101C13.4912 29.4211 13.5766 29.5168 13.68 29.5901L15.08 31.2201C15.1574 31.3092 15.2528 31.3808 15.36 31.4301C15.4669 31.478 15.5829 31.5019 15.7 31.5001C15.9354 31.4914 16.1579 31.3909 16.32 31.2201L18.85 28.4201C18.9369 28.3407 19.0082 28.2457 19.06 28.1401C19.1145 28.0311 19.1451 27.9118 19.15 27.7901C19.152 27.6697 19.1282 27.5504 19.08 27.4401C19.0336 27.3226 18.9619 27.2167 18.87 27.1301ZM15.08 20.3201C15.1544 20.4123 15.2506 20.4845 15.36 20.5301C15.4662 20.5811 15.5822 20.6084 15.7 20.6101C15.8176 20.6061 15.9332 20.5784 16.0397 20.5286C16.1463 20.4787 16.2416 20.4078 16.32 20.3201L18.85 17.5201C18.9598 17.3513 19.0091 17.1504 18.99 16.9501C18.9668 16.7466 18.8709 16.5584 18.72 16.4201C18.566 16.2881 18.3726 16.2107 18.17 16.2001C17.9659 16.2005 17.7682 16.2712 17.61 16.4001L15.7 18.4801L14.92 17.5801C14.7618 17.4512 14.5641 17.3805 14.36 17.3801C14.1561 17.3842 13.9605 17.4624 13.81 17.6001C13.6604 17.7376 13.5651 17.9242 13.5412 18.126C13.5174 18.3278 13.5666 18.5314 13.68 18.7001L15.08 20.3201ZM18.87 21.6901C18.7822 21.6088 18.6757 21.5505 18.56 21.5201C18.4447 21.4949 18.3253 21.4949 18.21 21.5201C18.0898 21.5306 17.9736 21.5682 17.87 21.6301C17.7689 21.6969 17.6808 21.7817 17.61 21.8801L15.7 23.9501L14.92 23.0501C14.7695 22.889 14.5623 22.7927 14.3421 22.7815C14.122 22.7703 13.9061 22.8451 13.74 22.9901C13.5788 23.1415 13.4821 23.3492 13.47 23.5701C13.4587 23.7898 13.5341 24.0053 13.68 24.1701L15.08 25.7901C15.1574 25.8792 15.2528 25.9508 15.36 26.0001C15.4669 26.048 15.5829 26.0719 15.7 26.0701C15.9354 26.0614 16.1579 25.9609 16.32 25.7901L18.85 22.9901C18.9391 22.9127 19.0107 22.8173 19.06 22.7101C19.1145 22.6011 19.1451 22.4818 19.15 22.3601C19.152 22.2397 19.1282 22.1204 19.08 22.0101C19.0349 21.889 18.9632 21.7796 18.87 21.6901ZM37.32 42.1201H39V42.9101C39.0022 43.315 38.9238 43.7163 38.7693 44.0906C38.6147 44.4648 38.3872 44.8046 38.1 45.0901C37.8167 45.3871 37.4772 45.6249 37.1013 45.7897C36.7254 45.9545 36.3204 46.043 35.91 46.0501H10.09C9.2705 46.0501 8.48454 45.7245 7.90506 45.145C7.32557 44.5655 7.00002 43.7796 7.00002 42.9601V10.4001C6.99869 9.99437 7.07778 9.59244 7.23272 9.2175C7.38766 8.84257 7.61537 8.50206 7.9027 8.21566C8.19003 7.92926 8.53128 7.70264 8.90672 7.54892C9.28215 7.3952 9.68434 7.31741 10.09 7.32005H15.14V6.93005C15.1718 6.21342 15.4843 5.53808 16.01 5.05005C16.5353 4.55845 17.2307 4.28961 17.95 4.30005H18.51L18.62 4.05005C19.13 3.16005 19.62 2.05005 21.32 2.05005H24.68C25.2264 2.02018 25.7679 2.16757 26.2238 2.47029C26.6796 2.773 27.0256 3.21485 27.21 3.73005L27.49 4.29005H28.05C28.4107 4.28253 28.7698 4.34011 29.11 4.46005C29.4419 4.58984 29.747 4.77968 30.01 5.02005C30.2702 5.2679 30.4807 5.5632 30.63 5.89005C30.7663 6.2068 30.8443 6.54558 30.86 6.89005V7.28005H35.86C36.6795 7.28279 37.4654 7.60577 38.05 8.18005C38.6264 8.75915 38.95 9.54298 38.95 10.3601V25.9401H37.32V10.4001C37.307 10.0357 37.1524 9.69088 36.8891 9.43878C36.6258 9.18668 36.2745 9.04722 35.91 9.05005H30.91C30.8687 9.7558 30.5502 10.4166 30.0239 10.8886C29.4976 11.3606 28.8061 11.6056 28.1 11.5701H17.95C17.2471 11.5905 16.5633 11.3398 16.04 10.8701C15.5205 10.3992 15.1988 9.74876 15.14 9.05005H10.09C9.90456 9.04927 9.72077 9.08508 9.54917 9.15544C9.37758 9.22579 9.22155 9.32931 9.09002 9.46005C8.95656 9.59008 8.85061 9.74561 8.77846 9.9174C8.7063 10.0892 8.66942 10.2737 8.67001 10.4601V42.9101C8.67524 43.2815 8.82578 43.636 9.08936 43.8977C9.35295 44.1595 9.70858 44.3075 10.08 44.3101H35.91C36.0947 44.3114 36.2778 44.2761 36.4488 44.2064C36.6199 44.1366 36.7754 44.0337 36.9064 43.9036C37.0375 43.7734 37.1415 43.6186 37.2125 43.4481C37.2835 43.2776 37.32 43.0947 37.32 42.9101V42.1201ZM16.83 8.95005C16.841 9.08278 16.8784 9.21198 16.94 9.33005C17.0046 9.44668 17.0918 9.54922 17.1965 9.63165C17.3013 9.71408 17.4215 9.77474 17.55 9.81005C17.6817 9.83972 17.8183 9.83972 17.95 9.81005H28.05C28.1817 9.84006 28.3184 9.84006 28.45 9.81005C28.5786 9.77474 28.6987 9.71408 28.8035 9.63165C28.9082 9.54922 28.9955 9.44668 29.06 9.33005C29.1299 9.21216 29.1805 9.08388 29.21 8.95005V6.95005C29.1797 6.67829 29.0475 6.42813 28.84 6.25005C28.7374 6.15831 28.6169 6.08876 28.4861 6.04574C28.3553 6.00272 28.2171 5.98717 28.08 6.00005H26.43L25.75 4.54005C25.36 3.87005 25.3 3.70005 24.68 3.70005H21.32C20.7 3.70005 20.59 3.92005 20.19 4.76005L19.63 6.00005H17.95C17.8146 5.98856 17.6782 6.00481 17.5493 6.04779C17.4203 6.09078 17.3015 6.1596 17.2 6.25005C17.0939 6.3354 17.0064 6.44151 16.9428 6.56187C16.8792 6.68224 16.8408 6.81433 16.83 6.95005V8.95005ZM23 6.76005C23.1108 6.76005 23.219 6.72721 23.3111 6.66568C23.4032 6.60414 23.475 6.51668 23.5174 6.41436C23.5598 6.31203 23.5709 6.19943 23.5493 6.0908C23.5276 5.98217 23.4743 5.88239 23.396 5.80407C23.3177 5.72576 23.2179 5.67242 23.1093 5.65081C23.0006 5.62921 22.888 5.6403 22.7857 5.68268C22.6834 5.72507 22.5959 5.79684 22.5344 5.88893C22.4729 5.98103 22.44 6.0893 22.44 6.20005C22.44 6.34858 22.499 6.49101 22.604 6.59603C22.7091 6.70105 22.8515 6.76005 23 6.76005ZM31.37 17.5201H21.88C21.7684 17.5198 21.6579 17.5417 21.5549 17.5847C21.4518 17.6276 21.3584 17.6906 21.28 17.7701C21.1635 17.8881 21.0846 18.038 21.0532 18.2008C21.0217 18.3636 21.0392 18.5321 21.1033 18.6851C21.1675 18.838 21.2755 18.9685 21.4137 19.0601C21.5519 19.1518 21.7142 19.2005 21.88 19.2001H31.37C31.4794 19.2014 31.5879 19.1809 31.6893 19.1397C31.7906 19.0985 31.8827 19.0374 31.96 18.9601C32.0746 18.8413 32.1521 18.6918 32.1832 18.5298C32.2143 18.3678 32.1975 18.2002 32.1349 18.0475C32.0724 17.8948 31.9668 17.7637 31.8309 17.67C31.6951 17.5764 31.535 17.5242 31.37 17.5201Z" fill="black"/>
</svg>
