<svg xmlns="http://www.w3.org/2000/svg" viewBox="0 0 48 48" width="48" height="48">
<path fill="#c7c7c7" d="M30.1686 24.852C30.2432 24.8711 30.3197 24.8813 30.3966 24.8822C30.6004 24.8781 30.7961 24.801 30.9483 24.6646C31.1005 24.5282 31.1993 24.3416 31.2268 24.1385C31.2543 23.9353 31.2088 23.7289 31.0983 23.5566C30.9879 23.3842 30.8199 23.2572 30.6246 23.1985L27.2467 22.254C27.0334 22.2055 26.8096 22.2423 26.6228 22.3566C26.4352 22.4694 26.298 22.6504 26.2394 22.8621C26.1808 23.0738 26.2052 23.3001 26.3078 23.4942C26.4096 23.6895 26.5827 23.8377 26.7908 23.9076L30.1686 24.852ZM44.949 28.8713L41.8561 26.922L37.3113 24.0615L42.1501 20.9927L45.321 18.9861L41.7212 17.9059L31.9746 14.9578L31.2126 14.7315L30.5526 15.1419L25.8068 18.0779L24.0069 19.1973H23.9769L22.1829 18.096L17.4881 15.163L16.8222 14.7436L16.0572 14.9729L6.41856 17.9089L2.86071 18.9891L5.98358 20.9927L10.6574 23.977L5.83059 26.9069L2.59072 28.8743L6.21457 30.0058L10.2134 31.252V40.0328C10.2138 40.2118 10.2705 40.3861 10.3754 40.5307C10.4792 40.673 10.6252 40.7787 10.7924 40.8324L23.5509 45.2258C23.6429 45.2558 23.7391 45.2711 23.8359 45.2711C23.9317 45.2712 24.0269 45.2559 24.1179 45.2258L36.8824 40.8445C37.0522 40.7881 37.2002 40.6794 37.3052 40.5337C37.4101 40.388 37.4669 40.2127 37.4673 40.0328V31.3063L41.4812 30.0028L44.949 28.8713ZM22.9869 20.7996V27.0276L21.9999 26.7259L12.9163 24.0403L21.8109 21.1738L22.9869 20.7996ZM6.94655 19.5564L16.5852 16.6265L21.283 19.5564L11.7434 22.6251L6.94655 19.5564ZM6.75155 28.3794L11.5814 25.4465L21.496 28.3794L16.5402 31.4482L6.75155 28.3794ZM22.8279 43.1649L11.9593 39.4293V31.7922L16.0452 33.0625L16.8072 33.3009L17.4821 32.8815L22.4379 29.8127L22.9929 29.4717L22.8279 43.1649ZM31.4766 16.6114L41.2232 19.5413L36.3634 22.6221L26.7338 19.5534L31.4766 16.6114ZM24.7148 20.7121L26.2148 21.1888L35.0824 24.0102L26.2148 26.7259L24.6878 27.1905L24.7148 20.7121ZM35.7424 39.4203L24.5498 43.2916L24.7028 29.1096L25.7828 29.8338L30.5526 32.9026L31.2426 33.3461L32.0255 33.0927L35.7304 31.8857L35.7424 39.4203ZM31.5096 31.4421L26.7428 28.3824L36.3064 25.4495L40.9652 28.3824L31.5096 31.4421ZM6.75755 10.2868C7.1794 10.2865 7.59171 10.1605 7.94247 9.92472C8.29322 9.68897 8.56672 9.35403 8.72847 8.96214C8.88861 8.57034 8.93019 8.13971 8.84801 7.72423C8.76583 7.30876 8.56353 6.92693 8.26649 6.62663C7.96747 6.32759 7.58734 6.12398 7.17377 6.04132C6.76019 5.95865 6.33155 6.00062 5.94158 6.16195C5.55281 6.32602 5.22019 6.60081 4.98462 6.95252C4.77087 7.27548 4.6482 7.6507 4.62965 8.03823C4.6111 8.42576 4.69738 8.8111 4.87929 9.15322C5.06121 9.49534 5.33195 9.78144 5.6627 9.98105C5.99345 10.1807 6.37183 10.2863 6.75755 10.2868ZM5.85759 7.23012C6.05194 7.03394 6.30396 6.90598 6.5763 6.86519C6.84863 6.82441 7.12679 6.87297 7.36953 7.00369C7.61227 7.1344 7.80668 7.34031 7.92393 7.5909C8.04119 7.84148 8.07505 8.1234 8.0205 8.39486C7.97018 8.64399 7.84804 8.87271 7.66933 9.05247C7.49061 9.23224 7.26323 9.35509 7.01554 9.4057C6.74566 9.46057 6.46539 9.42651 6.21626 9.30857C5.96714 9.19063 5.76243 8.99508 5.63247 8.75092C5.50252 8.50676 5.45423 8.22697 5.49478 7.95304C5.53533 7.67911 5.66255 7.42561 5.85759 7.23012ZM3.65267 14.2336C3.74961 13.9989 3.77468 13.7405 3.72467 13.4913C3.67625 13.2422 3.55505 13.0132 3.37657 12.8336C3.19809 12.6541 2.97044 12.5322 2.72271 12.4835C2.47505 12.433 2.21803 12.4582 1.98474 12.5559C1.71267 12.6704 1.48833 12.876 1.34977 13.1379C1.21121 13.3997 1.16697 13.7018 1.22454 13.9927C1.2821 14.2836 1.43794 14.5456 1.66562 14.7341C1.8933 14.9227 2.17881 15.0262 2.47372 15.0272C2.7261 15.0265 2.97264 14.9507 3.18239 14.8096C3.39213 14.6684 3.55574 14.468 3.65267 14.2336ZM2.89671 13.8232C2.87987 13.9074 2.83925 13.985 2.77971 14.0465C2.72015 14.1067 2.64414 14.1477 2.56135 14.1644C2.47856 14.1811 2.39273 14.1726 2.31473 14.1401C2.25072 14.1135 2.19416 14.0716 2.15003 14.0179C2.1059 13.9642 2.07554 13.9005 2.06162 13.8323C2.0477 13.7641 2.05064 13.6934 2.07019 13.6266C2.08974 13.5598 2.12529 13.4988 2.17373 13.4491C2.21264 13.4087 2.25927 13.3766 2.31083 13.3548C2.36239 13.333 2.4178 13.322 2.47372 13.3224C2.55765 13.3225 2.63982 13.3466 2.71071 13.3918C2.78119 13.4388 2.83638 13.5056 2.86945 13.5839C2.90251 13.6623 2.91199 13.7486 2.89671 13.8323V13.8232ZM41.8951 42.5735C41.7267 42.4199 41.5286 42.3028 41.3132 42.2295C40.9112 42.1019 40.4772 42.123 40.0894 42.289C39.7016 42.455 39.3855 42.7549 39.1983 43.1347C39.0294 43.4851 38.9838 43.8827 39.0688 44.2626C39.1538 44.6424 39.3644 44.982 39.6662 45.2258C39.9658 45.4675 40.3382 45.5994 40.7222 45.6C41.2019 45.5886 41.6582 45.3894 41.9941 45.0448C42.1501 44.8768 42.2723 44.68 42.3541 44.4654C42.4324 44.2502 42.468 44.0216 42.4591 43.7925C42.4492 43.5638 42.3943 43.3394 42.2975 43.1322C42.2007 42.925 42.0639 42.7392 41.8951 42.5856V42.5735ZM41.6342 44.3266C41.5349 44.5304 41.371 44.6951 41.1684 44.795C40.9658 44.8948 40.736 44.924 40.515 44.8781C40.2941 44.8321 40.0947 44.7136 39.9481 44.5411C39.8015 44.3686 39.716 44.152 39.7052 43.9253C39.6997 43.7909 39.72 43.6567 39.7652 43.53C39.8557 43.274 40.0434 43.0646 40.2872 42.9477C40.4218 42.8818 40.5695 42.8477 40.7192 42.8481C40.9508 42.8476 41.1754 42.9275 41.3552 43.0744C41.5358 43.2205 41.6618 43.4239 41.7125 43.6514C41.7632 43.8789 41.7356 44.117 41.6342 44.3266ZM46.782 40.0388C46.7817 40.1272 46.7485 40.2123 46.689 40.2772C46.6312 40.3429 46.5508 40.3839 46.464 40.3919H45.639V41.2096C45.6391 41.2556 45.6302 41.3011 45.6127 41.3436C45.5952 41.3861 45.5695 41.4247 45.537 41.457C45.5043 41.4898 45.4654 41.5157 45.4227 41.5333C45.3799 41.5509 45.3342 41.5598 45.288 41.5596C45.1957 41.5589 45.1073 41.5218 45.0417 41.4564C44.9762 41.391 44.9386 41.3025 44.937 41.2096V40.3828H44.1151C44.0275 40.3744 43.9463 40.3335 43.8871 40.2682C43.8289 40.202 43.7967 40.1167 43.7967 40.0283C43.7967 39.9399 43.8289 39.8546 43.8871 39.7884C43.9471 39.7241 44.0279 39.6835 44.1151 39.6737H44.937V38.85C44.9377 38.7558 44.9755 38.6658 45.042 38.5995C45.0742 38.5669 45.1126 38.541 45.1548 38.5234C45.197 38.5058 45.2423 38.4968 45.288 38.4969C45.3342 38.4965 45.38 38.5054 45.4228 38.523C45.4656 38.5406 45.5044 38.5666 45.5371 38.5994C45.5698 38.6323 45.5956 38.6714 45.6131 38.7144C45.6306 38.7574 45.6394 38.8035 45.639 38.85V39.6737H46.482C46.5692 39.6834 46.6499 39.725 46.7085 39.7907C46.7672 39.8564 46.7997 39.9415 46.8 40.0298L46.782 40.0388Z"/>
<path fill="#909090" d="M27.9943 2.40002H19.4056C18.7872 2.40041 18.175 2.52013 17.6039 2.75233C17.0328 2.98453 16.5139 3.32467 16.0769 3.75333C15.64 4.18199 15.2935 4.69078 15.0572 5.25065C14.821 5.81051 14.6996 6.41049 14.7 7.01632C14.7 8.23934 15.1956 9.4123 16.078 10.2774C16.9604 11.1425 18.1573 11.6289 19.4056 11.6296H22.0457L23.5336 13.0845C23.5736 13.1227 23.6209 13.1529 23.6727 13.1734C23.7252 13.1913 23.7804 13.2003 23.836 13.2C23.8917 13.1964 23.9461 13.1823 23.9963 13.1585C24.0459 13.1348 24.0901 13.1015 24.1264 13.0608L25.336 11.6296H27.9762C28.599 11.6319 29.2159 11.512 29.7907 11.2771C30.6513 10.9284 31.3871 10.3374 31.9049 9.57903C32.4228 8.82062 32.6995 7.92879 32.6999 7.01632C32.6991 5.79327 32.2033 4.62045 31.3212 3.75506C30.439 2.88968 29.2426 2.40238 27.9943 2.40002ZM21.3411 8.06224C21.1818 8.06135 21.0263 8.01501 20.8935 7.92891C20.7581 7.84328 20.6526 7.71924 20.5911 7.57335C20.5302 7.4292 20.5144 7.2706 20.5457 7.11764C20.5769 6.96468 20.6537 6.82424 20.7665 6.7141C20.8508 6.63174 20.9527 6.56868 21.0648 6.52942C21.1769 6.49015 21.2965 6.47567 21.415 6.48699C21.5334 6.49832 21.6479 6.53518 21.7502 6.59493C21.8524 6.65468 21.9399 6.73585 22.0064 6.83261C22.0943 6.96273 22.1416 7.11511 22.1425 7.27113C22.1429 7.37513 22.1223 7.47818 22.0818 7.57434C22.0414 7.6705 21.9819 7.75786 21.9069 7.8314C21.8318 7.90494 21.7426 7.9632 21.6445 8.00282C21.5464 8.04244 21.4412 8.06263 21.335 8.06224H21.3411ZM23.706 8.06224C23.5466 8.06222 23.3908 8.01581 23.2584 7.92891C23.1251 7.84246 23.0211 7.71906 22.9597 7.57447C22.8983 7.42987 22.8823 7.27063 22.9137 7.11706C22.9452 6.96437 23.0219 6.82419 23.1344 6.7141C23.2467 6.60219 23.3913 6.5267 23.5487 6.4978C23.6655 6.47501 23.7859 6.47787 23.9013 6.50618C24.0168 6.53449 24.1244 6.58754 24.2164 6.66152C24.3083 6.73549 24.3824 6.82854 24.4333 6.93396C24.4841 7.03937 24.5105 7.15453 24.5104 7.27113C24.5108 7.37488 24.4903 7.47769 24.4501 7.57365C24.4098 7.66962 24.3506 7.75685 24.2759 7.83035C24.2012 7.90385 24.1123 7.96217 24.0145 8.00197C23.9167 8.04176 23.8119 8.06224 23.706 8.06224ZM26.0709 8.06224C25.9117 8.06135 25.7561 8.01501 25.6233 7.92891C25.488 7.84328 25.3825 7.71924 25.3209 7.57335C25.2601 7.4292 25.2443 7.2706 25.2755 7.11764C25.3067 6.96468 25.3836 6.82424 25.4963 6.7141C25.5806 6.63174 25.6825 6.56868 25.7946 6.52942C25.9067 6.49015 26.0263 6.47567 26.1448 6.48699C26.2633 6.49832 26.3778 6.53518 26.48 6.59493C26.5823 6.65468 26.6698 6.73585 26.7362 6.83261C26.8241 6.96273 26.8714 7.11511 26.8723 7.27113C26.8727 7.37513 26.8521 7.47818 26.8117 7.57434C26.7712 7.6705 26.7118 7.75786 26.6367 7.8314C26.5617 7.90494 26.4725 7.9632 26.3743 8.00282C26.2762 8.04244 26.171 8.06263 26.0649 8.06224H26.0709Z" />
</svg>
