<svg xmlns="http://www.w3.org/2000/svg" viewBox="0 0 120 120" width="120" height="120">
<path fill="#e6223d" d="M95.9247 68.1004C92.5536 68.021 89.2352 68.9474 86.3927 70.7614C83.5502 72.5755 81.3124 75.195 79.9646 78.286C78.6169 81.377 78.2203 84.7994 78.8253 88.1167C79.4304 91.434 81.0098 94.4959 83.362 96.912C85.7142 99.3281 88.7328 100.989 92.0327 101.683C95.3326 102.376 98.7644 102.071 101.89 100.807C105.016 99.5425 107.695 97.3756 109.584 94.5827C111.474 91.7898 112.489 88.4974 112.5 85.1254C112.533 82.9183 112.13 80.7263 111.314 78.6752C110.498 76.624 109.286 74.7541 107.746 73.1724C106.206 71.5908 104.369 70.3287 102.341 69.4583C100.312 68.5879 98.132 68.1265 95.9247 68.1004ZM103.025 80.1254C102.965 80.3831 102.845 80.623 102.675 80.8254L95.1747 91.4504C95.0183 91.6983 94.8038 91.9043 94.5497 92.0504C94.2943 92.181 94.0116 92.2495 93.7247 92.2504C93.4481 92.2552 93.1741 92.1953 92.9247 92.0754C92.6741 91.9697 92.4515 91.8071 92.2747 91.6004L87.6247 86.3754C87.3151 85.9501 87.1808 85.422 87.2497 84.9004C87.2844 84.6426 87.3709 84.3945 87.5041 84.1711C87.6373 83.9476 87.8144 83.7535 88.0247 83.6004C88.4379 83.2957 88.9484 83.1529 89.4597 83.1989C89.971 83.245 90.4477 83.4768 90.7997 83.8504L93.2997 87.1754L99.3497 78.6754C99.4937 78.4566 99.6809 78.2694 99.8997 78.1254C100.12 77.9791 100.366 77.8772 100.625 77.8254C100.879 77.7629 101.145 77.7629 101.4 77.8254C101.659 77.8772 101.905 77.9791 102.125 78.1254C102.329 78.2803 102.5 78.4761 102.625 78.7004C102.756 78.9229 102.841 79.1694 102.875 79.4254C102.966 79.6478 103.017 79.885 103.025 80.1254Z"/>
<path fill="#c7c7c7" d="M79.9 58.0247C80.0981 58.2159 80.2557 58.4451 80.3633 58.6985C80.4709 58.9519 80.5264 59.2244 80.5264 59.4997C80.5264 59.775 80.4709 60.0475 80.3633 60.3009C80.2557 60.5544 80.0981 60.7835 79.9 60.9747C79.7079 61.1714 79.4785 61.328 79.2253 61.4353C78.9721 61.5426 78.7001 61.5985 78.425 61.5997H54.7C54.421 61.6004 54.1447 61.5455 53.8871 61.4382C53.6296 61.3309 53.396 61.1733 53.2 60.9747C52.8181 60.5786 52.6047 60.0499 52.6047 59.4997C52.6047 58.9495 52.8181 58.4208 53.2 58.0247C53.396 57.8261 53.6296 57.6686 53.8871 57.5612C54.1447 57.4539 54.421 57.399 54.7 57.3997H78.425C78.7001 57.4009 78.9721 57.4568 79.2253 57.5641C79.4785 57.6714 79.7079 57.828 79.9 58.0247ZM78.425 70.8747H54.7C54.421 70.874 54.1447 70.9289 53.8871 71.0362C53.6296 71.1436 53.396 71.3011 53.2 71.4997C52.8165 71.9 52.6024 72.4329 52.6024 72.9872C52.6024 73.5415 52.8165 74.0745 53.2 74.4747C53.396 74.6733 53.6296 74.8309 53.8871 74.9382C54.1447 75.0455 54.421 75.1004 54.7 75.0997H78.425C78.9457 75.043 79.4271 74.796 79.7768 74.4061C80.1265 74.0162 80.3199 73.5109 80.3199 72.9872C80.3199 72.4635 80.1265 71.9582 79.7768 71.5683C79.4271 71.1784 78.9457 70.9314 78.425 70.8747ZM47.175 67.8247C46.9508 67.6225 46.6868 67.4693 46.4 67.3747C46.1118 67.3117 45.8133 67.3117 45.525 67.3747C45.2246 67.4011 44.934 67.4951 44.675 67.6497C44.4176 67.8109 44.1962 68.0237 44.025 68.2747L39.25 73.5997L37.3 71.3497C37.162 71.0554 36.9458 70.8046 36.675 70.6247C36.4297 70.4223 36.1374 70.2848 35.825 70.2247C35.5129 70.1494 35.1872 70.1494 34.875 70.2247C34.5574 70.2983 34.2644 70.4534 34.025 70.6747C33.7931 70.8851 33.606 71.1402 33.475 71.4247C33.3555 71.727 33.2961 72.0497 33.3 72.3747C33.3148 72.693 33.4094 73.0025 33.575 73.2747C33.7279 73.5522 33.9416 73.7915 34.2 73.9747L37.7 78.0497C37.8934 78.2725 38.132 78.4515 38.4 78.5747C38.6672 78.6945 38.9573 78.7543 39.25 78.7497C39.8384 78.7282 40.3949 78.4768 40.8 78.0497L47.125 71.0497C47.3423 70.8513 47.5204 70.6139 47.65 70.3497C47.7862 70.0773 47.8629 69.779 47.875 69.4747C47.8801 69.1739 47.8204 68.8755 47.7 68.5997C47.5841 68.306 47.4048 68.0413 47.175 67.8247ZM37.7 50.7997C37.8859 51.0304 38.1266 51.2109 38.4 51.3247C38.6655 51.4524 38.9555 51.5206 39.25 51.5247C39.544 51.5149 39.8329 51.4457 40.0993 51.321C40.3658 51.1964 40.6041 51.0191 40.8 50.7997L47.125 43.7997C47.3995 43.3779 47.5229 42.8756 47.475 42.3747C47.417 41.8662 47.1773 41.3957 46.8 41.0497C46.4149 40.7198 45.9315 40.5264 45.425 40.4997C44.9148 40.5009 44.4206 40.6775 44.025 40.9997L39.25 46.1997L37.3 43.9497C36.9045 43.6275 36.4102 43.4509 35.9 43.4497C35.3901 43.46 34.9014 43.6555 34.525 43.9997C34.1511 44.3436 33.9127 44.81 33.8531 45.3145C33.7935 45.819 33.9166 46.3282 34.2 46.7497L37.7 50.7997ZM47.175 54.2247C46.9554 54.0217 46.6893 53.8757 46.4 53.7997C46.1118 53.7367 45.8133 53.7367 45.525 53.7997C45.2246 53.8261 44.934 53.9201 44.675 54.0747C44.4223 54.2419 44.202 54.4537 44.025 54.6997L39.25 59.8747L37.3 57.6247C36.9238 57.2221 36.4058 56.9813 35.8554 56.9533C35.305 56.9254 34.7652 57.1123 34.35 57.4747C33.9469 57.8533 33.7052 58.3726 33.675 58.9247C33.6468 59.4742 33.8353 60.0128 34.2 60.4247L37.7 64.4747C37.8934 64.6975 38.132 64.8765 38.4 64.9997C38.6672 65.1196 38.9573 65.1793 39.25 65.1747C39.8384 65.1532 40.3949 64.9018 40.8 64.4747L47.125 57.4747C47.3478 57.2813 47.5268 57.0427 47.65 56.7747C47.7862 56.5023 47.8629 56.204 47.875 55.8997C47.8801 55.5989 47.8204 55.3005 47.7 55.0247C47.5874 54.722 47.4079 54.4486 47.175 54.2247ZM93.3 105.3H97.5V107.275C97.5056 108.287 97.3094 109.29 96.9231 110.226C96.5368 111.162 95.9681 112.011 95.25 112.725C94.5418 113.467 93.6931 114.062 92.7533 114.474C91.8134 114.886 90.8011 115.107 89.775 115.125H25.225C23.1762 115.125 21.2114 114.311 19.7626 112.862C18.3139 111.413 17.5 109.449 17.5 107.4V25.9997C17.4967 24.9855 17.6944 23.9807 18.0818 23.0433C18.4691 22.106 19.0384 21.2547 19.7568 20.5387C20.4751 19.8227 21.3282 19.2562 22.2668 18.8719C23.2054 18.4876 24.2108 18.2931 25.225 18.2997H37.85V17.3247C37.9294 15.5331 38.7107 13.8448 40.025 12.6247C41.3382 11.3957 43.0767 10.7236 44.875 10.7497H46.275L46.55 10.1247C47.825 7.89971 49.05 5.12471 53.3 5.12471H61.7C63.0661 5.05002 64.4197 5.4185 65.5594 6.17529C66.6991 6.93208 67.5639 8.03671 68.025 9.32471L68.725 10.7247H70.125C71.0267 10.7059 71.9244 10.8499 72.775 11.1497C73.6047 11.4742 74.3674 11.9488 75.025 12.5497C75.6756 13.1693 76.2017 13.9076 76.575 14.7247C76.9158 15.5166 77.1107 16.3635 77.15 17.2247V18.1997H89.65C91.6987 18.2065 93.6636 19.014 95.125 20.4497C96.5661 21.8974 97.3751 23.857 97.375 25.8997V64.8497H93.3V25.9997C93.2675 25.0889 92.881 24.2268 92.2228 23.5965C91.5645 22.9663 90.6863 22.6176 89.775 22.6247H77.275C77.1717 24.3891 76.3755 26.0412 75.0597 27.2212C73.7439 28.4012 72.0152 29.0135 70.25 28.9247H44.875C43.1178 28.9757 41.4082 28.3492 40.1 27.1747C38.8012 25.9975 37.9971 24.3715 37.85 22.6247H25.225C24.7614 22.6227 24.3019 22.7123 23.8729 22.8882C23.4439 23.064 23.0539 23.3228 22.725 23.6497C22.3914 23.9748 22.1265 24.3636 21.9461 24.7931C21.7658 25.2225 21.6736 25.6839 21.675 26.1497V107.275C21.6881 108.203 22.0645 109.09 22.7234 109.744C23.3824 110.398 24.2715 110.768 25.2 110.775H89.775C90.2368 110.778 90.6946 110.69 91.1221 110.515C91.5496 110.341 91.9384 110.084 92.2661 109.758C92.5937 109.433 92.8538 109.046 93.0312 108.62C93.2087 108.194 93.3001 107.736 93.3 107.275V105.3ZM42.075 22.3747C42.1025 22.7065 42.196 23.0295 42.35 23.3247C42.5114 23.6163 42.7295 23.8726 42.9914 24.0787C43.2532 24.2848 43.5537 24.4364 43.875 24.5247C44.2042 24.5989 44.5458 24.5989 44.875 24.5247H70.125C70.4541 24.5997 70.7959 24.5997 71.125 24.5247C71.4464 24.4364 71.7468 24.2848 72.0087 24.0787C72.2706 23.8726 72.4887 23.6163 72.65 23.3247C72.8247 23.03 72.9513 22.7093 73.025 22.3747V17.3747C72.9494 16.6953 72.6188 16.0699 72.1 15.6247C71.8434 15.3954 71.5422 15.2215 71.2153 15.1139C70.8883 15.0064 70.5427 14.9675 70.2 14.9997H66.075L64.375 11.3497C63.4 9.67471 63.25 9.24971 61.7 9.24971H53.3C51.75 9.24971 51.475 9.79971 50.475 11.8997L49.075 14.9997H44.875C44.5364 14.971 44.1955 15.0116 43.8732 15.1191C43.5508 15.2265 43.2537 15.3986 43 15.6247C42.7348 15.8381 42.516 16.1033 42.357 16.4043C42.1979 16.7052 42.102 17.0354 42.075 17.3747V22.3747ZM57.5 16.8997C57.7769 16.8997 58.0476 16.8176 58.2778 16.6638C58.5081 16.5099 58.6875 16.2913 58.7935 16.0355C58.8994 15.7796 58.9272 15.4982 58.8731 15.2266C58.8191 14.955 58.6858 14.7056 58.49 14.5098C58.2942 14.314 58.0448 14.1806 57.7732 14.1266C57.5016 14.0726 57.2201 14.1003 56.9643 14.2063C56.7085 14.3122 56.4898 14.4917 56.336 14.7219C56.1822 14.9521 56.1 15.2228 56.1 15.4997C56.1 15.871 56.2475 16.2271 56.5101 16.4897C56.7726 16.7522 57.1287 16.8997 57.5 16.8997ZM78.425 43.7997H54.7C54.421 43.799 54.1447 43.8539 53.8871 43.9612C53.6296 44.0686 53.396 44.2261 53.2 44.4247C52.9088 44.7198 52.7115 45.0945 52.6329 45.5016C52.5543 45.9087 52.5979 46.3299 52.7584 46.7122C52.9188 47.0945 53.1887 47.4208 53.5343 47.6499C53.8798 47.879 54.2854 48.0007 54.7 47.9997H78.425C78.6985 48.0031 78.9699 47.9518 79.2232 47.8488C79.4765 47.7457 79.7066 47.593 79.9 47.3997C80.1865 47.1029 80.3803 46.7292 80.458 46.3241C80.5356 45.919 80.4937 45.5 80.3374 45.1184C80.181 44.7367 79.9169 44.4088 79.5773 44.1746C79.2378 43.9405 78.8374 43.8102 78.425 43.7997Z"/>
</svg>
